<?xml version="1.0" encoding="UTF-8"?>
<!DOCTYPE svg PUBLIC "-//W3C//DTD SVG 1.1//EN" "http://www.w3.org/Graphics/SVG/1.1/DTD/svg11.dtd">
<!-- Creator: CorelDRAW -->
<svg xmlns="http://www.w3.org/2000/svg" xml:space="preserve" width="40.8637mm" height="40.0816mm" version="1.1" style="shape-rendering:geometricPrecision; text-rendering:geometricPrecision; image-rendering:optimizeQuality; fill-rule:evenodd; clip-rule:evenodd"
viewBox="0 0 6586.47 6460.41"
 xmlns:xlink="http://www.w3.org/1999/xlink"
 xmlns:xodm="http://www.corel.com/coreldraw/odm/2003">
 <defs>
  <style type="text/css">
   <![CDATA[
    .fil0 {fill:#D2D3D5}
    .fil1 {fill:#0092D1}
    .fil2 {fill:#FEFEFE;fill-rule:nonzero}
   ]]>
  </style>
 </defs>
 <g id="Capa_x0020_1">
  <metadata id="CorelCorpID_0Corel-Layer"/>
  <rect class="fil0" x="-0.01" y="-0.01" width="6586.48" height="6460.42" rx="3230.21" ry="3230.21"/>
  <g id="_2167750532704">
   <circle class="fil1" cx="3293.24" cy="3230.21" r="2879.62"/>
   <path class="fil2" d="M4216.49 4528.01l-571.81 -575.92 227.1 -227.1 344.7 344.7 689.45 -689.45 227.1 231.15 -916.56 916.56 0 0.06zm-2490.09 324.39l0 -2920.01c0,-89.2 31.77,-165.6 95.27,-229.12 63.52,-63.52 139.92,-95.27 229.14,-95.27l2595.6 0c89.21,0 165.6,31.75 229.12,95.27 63.52,63.52 95.29,139.92 95.29,229.12l0 1135.57 -324.41 0 0 -1135.57 -2595.6 0 0 2129.21 186.57 -182.52 1111.23 0 0 324.46 -973.34 0 -648.87 648.87zm324.41 -973.33l0 -1946.69 0 1946.69z"/>
  </g>
 </g>
</svg>
