<?xml version="1.0" encoding="UTF-8"?>
<!DOCTYPE svg PUBLIC "-//W3C//DTD SVG 1.1//EN" "http://www.w3.org/Graphics/SVG/1.1/DTD/svg11.dtd">
<!-- Creator: CorelDRAW -->
<svg xmlns="http://www.w3.org/2000/svg" xml:space="preserve" width="40.8637mm" height="40.0816mm" version="1.1" style="shape-rendering:geometricPrecision; text-rendering:geometricPrecision; image-rendering:optimizeQuality; fill-rule:evenodd; clip-rule:evenodd"
viewBox="0 0 319.57 313.45"
 xmlns:xlink="http://www.w3.org/1999/xlink"
 xmlns:xodm="http://www.corel.com/coreldraw/odm/2003">
 <defs>
  <style type="text/css">
   <![CDATA[
    .str0 {stroke:#FEFEFE;stroke-width:1.56;stroke-miterlimit:22.9256}
    .fil0 {fill:#D2D3D5}
    .fil1 {fill:#0092D1}
    .fil2 {fill:#FEFEFE;fill-rule:nonzero}
   ]]>
  </style>
 </defs>
 <g id="Capa_x0020_1">
  <metadata id="CorelCorpID_0Corel-Layer"/>
  <rect class="fil0" x="-0" y="-0" width="319.57" height="313.45" rx="156.73" ry="156.73"/>
  <g id="_2169803162832">
   <circle class="fil1" cx="159.79" cy="156.73" r="139.72"/>
   <path class="fil2 str0" d="M159.8 237.22c-10.49,-3.57 -19.84,-9.27 -28.12,-17.17 -8.24,-7.9 -15.27,-17.65 -21.06,-29.27 -5.79,-11.6 -10.2,-24.78 -13.24,-39.55 -3.04,-14.74 -4.57,-30.75 -4.57,-47.97l0 -5.42c15.75,-1.08 29.38,-3.51 40.88,-7.29 11.52,-3.75 20.21,-8.53 26.11,-14.32 5.87,5.79 14.56,10.57 26.08,14.32 11.49,3.78 25.13,6.21 40.88,7.29l0 5.42c0,17.22 -1.53,33.23 -4.57,47.97 -3.04,14.77 -7.45,27.95 -13.24,39.55 -5.79,11.62 -12.79,21.37 -21.06,29.27 -8.24,7.9 -17.62,13.61 -28.09,17.17zm0 -6.5c9.43,-3.57 17.92,-9.14 25.42,-16.75 7.5,-7.61 13.87,-16.91 19.13,-27.9 5.23,-10.99 9.25,-23.46 12.02,-37.35 2.8,-13.9 4.18,-28.95 4.18,-45.15 -12.58,-1.06 -24.21,-3.22 -34.83,-6.52 -10.62,-3.3 -19.26,-7.5 -25.92,-12.6 -6.66,5.1 -15.3,9.3 -25.9,12.6 -10.62,3.3 -22.25,5.47 -34.88,6.52 0,16.19 1.37,31.25 4.15,45.15 2.75,13.9 6.76,26.36 12.02,37.35 5.26,10.99 11.65,20.29 19.16,27.9 7.51,7.61 15.99,13.18 25.45,16.75zm0 -15.01c-7.61,-3.14 -14.32,-7.95 -20.21,-14.4 -5.89,-6.45 -10.86,-14.19 -14.93,-23.19 -4.1,-9.01 -7.19,-18.89 -9.35,-29.67 -2.14,-10.78 -3.25,-22.08 -3.36,-33.89 10.52,-1.14 19.69,-2.93 27.48,-5.39 7.8,-2.46 14.59,-5.86 20.37,-10.25 5.81,4.39 12.63,7.79 20.4,10.25 7.77,2.46 16.91,4.25 27.43,5.39 -0.05,11.81 -1.14,23.11 -3.28,33.89 -2.14,10.78 -5.26,20.66 -9.33,29.67 -4.1,9.01 -9.09,16.75 -14.98,23.19 -5.92,6.45 -12.66,11.25 -20.24,14.4zm0 -5.97l0 -104.08c-5.39,3.54 -11.5,6.42 -18.39,8.59 -6.9,2.17 -14.85,3.86 -23.89,5.1 0.42,14.56 2.4,27.95 5.97,40.18 3.54,12.23 8.43,22.67 14.61,31.33 6.21,8.66 13.42,14.98 21.7,18.89z"/>
  </g>
 </g>
</svg>
