<?xml version="1.0" encoding="UTF-8"?>
<!DOCTYPE svg PUBLIC "-//W3C//DTD SVG 1.1//EN" "http://www.w3.org/Graphics/SVG/1.1/DTD/svg11.dtd">
<!-- Creator: CorelDRAW -->
<svg xmlns="http://www.w3.org/2000/svg" xml:space="preserve" width="11.476mm" height="11.4762mm" version="1.1" style="shape-rendering:geometricPrecision; text-rendering:geometricPrecision; image-rendering:optimizeQuality; fill-rule:evenodd; clip-rule:evenodd"
viewBox="0 0 27.53 27.53"
 xmlns:xlink="http://www.w3.org/1999/xlink"
 xmlns:xodm="http://www.corel.com/coreldraw/odm/2003">
 <defs>
  <style type="text/css">
   <![CDATA[
    .str0 {stroke:#0092D1;stroke-width:0.96;stroke-miterlimit:22.9256}
    .fil0 {fill:#FEFEFE}
    .fil1 {fill:#0092D1}
   ]]>
  </style>
 </defs>
 <g id="Capa_x0020_1">
  <metadata id="CorelCorpID_0Corel-Layer"/>
  <g id="_2166793858432">
   <path class="fil0 str0" d="M13.76 0.48c-7.34,0 -13.28,5.95 -13.28,13.29 0,7.34 5.95,13.28 13.28,13.28 7.34,0 13.28,-5.95 13.28,-13.28 0,-7.34 -5.95,-13.29 -13.28,-13.29z"/>
   <path class="fil1" d="M21.27 20.29l-1.14 1.14c-0.2,0.2 -0.8,0.33 -0.82,0.33 -3.6,0.03 -7.07,-1.38 -9.61,-3.93 -2.55,-2.56 -3.97,-6.03 -3.93,-9.64 0,-0 0.13,-0.58 0.33,-0.78l1.14 -1.14c0.42,-0.42 1.22,-0.61 1.78,-0.42l0.24 0.08c0.56,0.19 1.14,0.81 1.3,1.37l0.57 2.1c0.15,0.57 -0.05,1.38 -0.47,1.8l-0.76 0.76c0.75,2.76 2.91,4.93 5.67,5.68l0.76 -0.76c0.42,-0.42 1.23,-0.63 1.8,-0.47l2.1 0.57c0.57,0.16 1.19,0.74 1.37,1.3l0.08 0.24c0.19,0.56 -0,1.36 -0.42,1.77z"/>
  </g>
 </g>
</svg>
