<?xml version="1.0" encoding="UTF-8"?>
<!DOCTYPE svg PUBLIC "-//W3C//DTD SVG 1.1//EN" "http://www.w3.org/Graphics/SVG/1.1/DTD/svg11.dtd">
<!-- Creator: CorelDRAW -->
<svg xmlns="http://www.w3.org/2000/svg" xml:space="preserve" width="11.4867mm" height="11.4868mm" version="1.1" style="shape-rendering:geometricPrecision; text-rendering:geometricPrecision; image-rendering:optimizeQuality; fill-rule:evenodd; clip-rule:evenodd"
viewBox="0 0 27.58 27.58"
 xmlns:xlink="http://www.w3.org/1999/xlink"
 xmlns:xodm="http://www.corel.com/coreldraw/odm/2003">
 <defs>
  <style type="text/css">
   <![CDATA[
    .str1 {stroke:#0092D1;stroke-width:2.1;stroke-miterlimit:10}
    .str0 {stroke:#0092D1;stroke-width:0.96;stroke-miterlimit:10}
    .fil0 {fill:#FEFEFE;fill-rule:nonzero}
    .fil1 {fill:#0092D1;fill-rule:nonzero}
   ]]>
  </style>
 </defs>
 <g id="Capa_x0020_1">
  <metadata id="CorelCorpID_0Corel-Layer"/>
  <g id="_2169461502064">
   <g>
    <path class="fil0 str0" d="M0.48 13.79c0,-7.35 5.96,-13.31 13.31,-13.31 7.35,0 13.31,5.96 13.31,13.31 0,7.35 -5.96,13.31 -13.31,13.31 -7.35,0 -13.31,-5.96 -13.31,-13.31z"/>
   </g>
   <g>
    <path class="fil0 str1" d="M5.07 13.79c0,-4.82 3.91,-8.72 8.72,-8.72 4.82,0 8.72,3.91 8.72,8.72 0,4.82 -3.91,8.72 -8.72,8.72 -4.82,0 -8.72,-3.91 -8.72,-8.72z"/>
   </g>
   <g>
    <path class="fil1" d="M10.72 8.68c0,-0.58 0.47,-1.05 1.05,-1.05 0.58,0 1.05,0.47 1.05,1.05l-2.1 0zm0 5.21l0 -5.21 2.1 0 0 5.21 -1.59 0.9 -0.51 -0.9zm2.1 0c0,0.58 -0.47,1.05 -1.05,1.05 -0.58,0 -1.05,-0.47 -1.05,-1.05l2.1 0zm2.45 3.31l-4.04 -2.41 1.08 -1.81 4.04 2.41 -1.08 1.81zm1.08 -1.81c0.5,0.3 0.66,0.94 0.36,1.44 -0.3,0.5 -0.94,0.66 -1.44,0.36l1.08 -1.81z"/>
   </g>
  </g>
 </g>
</svg>
