<?xml version="1.0" encoding="UTF-8"?>
<!DOCTYPE svg PUBLIC "-//W3C//DTD SVG 1.1//EN" "http://www.w3.org/Graphics/SVG/1.1/DTD/svg11.dtd">
<!-- Creator: CorelDRAW -->
<svg xmlns="http://www.w3.org/2000/svg" xml:space="preserve" width="11.6484mm" height="11.6484mm" version="1.1" style="shape-rendering:geometricPrecision; text-rendering:geometricPrecision; image-rendering:optimizeQuality; fill-rule:evenodd; clip-rule:evenodd"
viewBox="0 0 28.36 28.36"
 xmlns:xlink="http://www.w3.org/1999/xlink"
 xmlns:xodm="http://www.corel.com/coreldraw/odm/2003">
 <defs>
  <style type="text/css">
   <![CDATA[
    .str0 {stroke:#0092D1;stroke-width:0.97;stroke-miterlimit:22.9256}
    .fil0 {fill:#FEFEFE}
    .fil1 {fill:#0092D1}
   ]]>
  </style>
 </defs>
 <g id="Capa_x0020_1">
  <metadata id="CorelCorpID_0Corel-Layer"/>
  <g id="_2169011583216">
   <path class="fil0 str0" d="M14.18 0.49c-7.56,0 -13.69,6.13 -13.69,13.69 0,7.56 6.13,13.69 13.69,13.69 7.56,0 13.69,-6.13 13.69,-13.69 0,-7.56 -6.13,-13.69 -13.69,-13.69z"/>
   <g>
    <path class="fil1" d="M22.96 18.59l-0 0c0,0.87 -0.7,1.57 -1.57,1.57l-14.41 0c-0.87,0 -1.57,-0.7 -1.57,-1.57l0 -8.29c0,-0.09 0.01,-0.18 0.03,-0.27l8.28 5.16c0.01,0.01 0.02,0.01 0.03,0.02 0.01,0.01 0.02,0.01 0.03,0.02 0.06,0.03 0.12,0.06 0.18,0.07 0.01,0 0.01,0 0.02,0 0.07,0.02 0.14,0.03 0.2,0.03l0 0c0,0 0,0 0,0 0.07,0 0.14,-0.01 0.2,-0.03 0.01,-0 0.01,-0 0.02,-0 0.06,-0.02 0.12,-0.04 0.18,-0.07 0.01,-0.01 0.02,-0.01 0.03,-0.02 0.01,-0.01 0.02,-0.01 0.03,-0.02l8.28 -5.16c0.01,0.09 0.02,0.18 0.02,0.27l0 8.29z"/>
    <polygon class="fil1" points="14.18,4.68 22.85,10.08 5.51,10.08 "/>
   </g>
  </g>
 </g>
</svg>
