<?xml version="1.0" encoding="UTF-8"?>
<!DOCTYPE svg PUBLIC "-//W3C//DTD SVG 1.1//EN" "http://www.w3.org/Graphics/SVG/1.1/DTD/svg11.dtd">
<!-- Creator: CorelDRAW -->
<svg xmlns="http://www.w3.org/2000/svg" xml:space="preserve" width="9.9663mm" height="9.9663mm" version="1.1" style="shape-rendering:geometricPrecision; text-rendering:geometricPrecision; image-rendering:optimizeQuality; fill-rule:evenodd; clip-rule:evenodd"
viewBox="0 0 20.78 20.78"
 xmlns:xlink="http://www.w3.org/1999/xlink"
 xmlns:xodm="http://www.corel.com/coreldraw/odm/2003">
 <defs>
  <style type="text/css">
   <![CDATA[
    .fil0 {fill:#0092D1;fill-rule:nonzero}
   ]]>
  </style>
 </defs>
 <g id="Capa_x0020_1">
  <metadata id="CorelCorpID_0Corel-Layer"/>
  <path class="fil0" d="M4.16 12.47l8.31 0 0 -2.08 -8.31 0 0 2.08zm0 -3.12l12.47 0 0 -2.08 -12.47 0 0 2.08zm0 -3.12l12.47 0 0 -2.08 -12.47 0 0 2.08zm-4.16 14.54l0 -18.7c0,-0.57 0.2,-1.06 0.61,-1.47 0.41,-0.41 0.9,-0.61 1.47,-0.61l16.62 0c0.57,0 1.06,0.2 1.47,0.61 0.41,0.41 0.61,0.9 0.61,1.47l0 12.47c0,0.57 -0.2,1.06 -0.61,1.47 -0.41,0.41 -0.9,0.61 -1.47,0.61l-14.54 0 -4.16 4.16zm3.27 -6.23l15.43 0 0 -12.47 -16.62 0 0 13.64 1.19 -1.17zm-1.19 0l0 -12.47 0 12.47z"/>
 </g>
</svg>
