<?xml version="1.0" encoding="UTF-8"?>
<!DOCTYPE svg PUBLIC "-//W3C//DTD SVG 1.1//EN" "http://www.w3.org/Graphics/SVG/1.1/DTD/svg11.dtd">
<!-- Creator: CorelDRAW -->
<svg xmlns="http://www.w3.org/2000/svg" xml:space="preserve" width="32.1292mm" height="44.1648mm" version="1.1" style="shape-rendering:geometricPrecision; text-rendering:geometricPrecision; image-rendering:optimizeQuality; fill-rule:evenodd; clip-rule:evenodd"
viewBox="0 0 196.64 270.3"
 xmlns:xlink="http://www.w3.org/1999/xlink"
 xmlns:xodm="http://www.corel.com/coreldraw/odm/2003">
 <defs>
  <style type="text/css">
   <![CDATA[
    .str0 {stroke:#0092D1;stroke-width:6.12;stroke-miterlimit:22.9256}
    .fil3 {fill:none}
    .fil1 {fill:#0092D1}
    .fil2 {fill:#FEFEFE;fill-rule:nonzero}
    .fil0 {fill:#0092D1;fill-rule:nonzero}
   ]]>
  </style>
 </defs>
 <g id="Capa_x0020_1">
  <metadata id="CorelCorpID_0Corel-Layer"/>
  <path class="fil0" d="M98.32 125.45c-10.35,0 -19.13,-3.6 -26.34,-10.81 -7.21,-7.21 -10.81,-15.99 -10.81,-26.33 0,-6.81 1.13,-13.67 3.38,-20.56 2.25,-6.9 5.17,-13.16 8.76,-18.77 3.58,-5.62 7.58,-10.19 12.01,-13.73 4.42,-3.54 8.75,-5.31 13,-5.31 4.33,0 8.69,1.77 13.07,5.31 4.38,3.54 8.36,8.11 11.94,13.73 3.58,5.62 6.5,11.87 8.76,18.77 2.26,6.9 3.38,13.75 3.38,20.56 0,10.35 -3.6,19.13 -10.81,26.33 -7.21,7.21 -15.99,10.81 -26.33,10.81zm0 -10.61c7.34,0 13.6,-2.59 18.77,-7.76 5.17,-5.17 7.76,-11.43 7.76,-18.77 0,-5.04 -0.86,-10.35 -2.59,-15.92 -1.72,-5.57 -3.89,-10.72 -6.5,-15.46 -2.61,-4.73 -5.46,-8.64 -8.56,-11.74 -3.1,-3.09 -6.06,-4.64 -8.89,-4.64 -2.74,0 -5.68,1.55 -8.82,4.64 -3.14,3.1 -6.01,7.01 -8.62,11.74 -2.61,4.73 -4.78,9.88 -6.5,15.46 -1.72,5.57 -2.59,10.88 -2.59,15.92 0,7.34 2.59,13.6 7.76,18.77 5.17,5.17 11.43,7.76 18.77,7.76zm5.31 -5.31c1.5,0 2.76,-0.51 3.78,-1.53 1.02,-1.02 1.53,-2.28 1.53,-3.78 0,-1.5 -0.51,-2.76 -1.53,-3.78 -1.02,-1.02 -2.28,-1.53 -3.78,-1.53 -4.42,0 -8.18,-1.55 -11.28,-4.64 -3.09,-3.09 -4.64,-6.85 -4.64,-11.28 0,-1.5 -0.51,-2.76 -1.52,-3.78 -1.02,-1.02 -2.28,-1.53 -3.78,-1.53 -1.5,0 -2.77,0.51 -3.78,1.53 -1.02,1.02 -1.52,2.28 -1.52,3.78 0,7.34 2.59,13.6 7.76,18.77 5.17,5.17 11.43,7.76 18.77,7.76zm-5.31 -31.84z"/>
  <path class="fil1" d="M39.04 220.27l118.55 0c19.79,0 35.98,-16.19 35.98,-35.98l0 -35.98 -190.52 0 0 35.98c0,19.79 16.19,35.98 35.98,35.98z"/>
  <path class="fil2" d="M57.93 202.71l-7.31 0 0 -28.24 -8.73 2.69 0 -5.91 15.26 -5.44 0.79 0 0 36.89zm29.07 -14.73c-1.9,1.87 -4.13,2.81 -6.68,2.81 -3.26,0 -5.86,-1.11 -7.82,-3.35 -1.96,-2.24 -2.94,-5.26 -2.94,-9.05 0,-2.42 0.53,-4.63 1.58,-6.65 1.05,-2.01 2.52,-3.58 4.41,-4.71 1.89,-1.12 4.02,-1.68 6.37,-1.68 2.44,0 4.59,0.6 6.48,1.82 1.89,1.22 3.36,2.96 4.4,5.24 1.05,2.28 1.58,4.89 1.6,7.82l0 2.7c0,6.15 -1.53,10.98 -4.59,14.48 -3.05,3.51 -7.38,5.39 -12.97,5.62l-1.8 0.03 0 -6.11 1.62 -0.03c6.36,-0.29 9.8,-3.27 10.32,-8.95zm-4.88 -2.79c1.18,0 2.19,-0.3 3.05,-0.91 0.85,-0.61 1.49,-1.35 1.93,-2.2l0 -3.01c0,-2.48 -0.47,-4.4 -1.42,-5.77 -0.94,-1.36 -2.21,-2.05 -3.8,-2.05 -1.46,0 -2.67,0.67 -3.61,2.01 -0.95,1.34 -1.42,3.02 -1.42,5.04 0,2.01 0.46,3.66 1.37,4.95 0.92,1.29 2.22,1.93 3.89,1.93zm42.54 -15.23l-14.24 32.75 -7.72 0 14.28 -30.93 -18.32 0 0 -5.91 26 0 0 4.09zm24.53 -4.46l0 6.01 -0.71 0c-3.31,0.05 -5.97,0.92 -7.99,2.59 -2.01,1.68 -3.22,4 -3.63,6.98 1.96,-2 4.43,-2.99 7.41,-2.99 3.21,0 5.75,1.15 7.64,3.44 1.89,2.3 2.83,5.31 2.83,9.05 0,2.39 -0.52,4.56 -1.55,6.5 -1.04,1.93 -2.5,3.45 -4.4,4.53 -1.89,1.08 -4.04,1.62 -6.43,1.62 -3.88,0 -7.01,-1.35 -9.4,-4.05 -2.38,-2.69 -3.58,-6.3 -3.58,-10.8l0 -2.62c0,-4 0.75,-7.53 2.26,-10.59 1.51,-3.07 3.68,-5.43 6.5,-7.12 2.82,-1.68 6.11,-2.52 9.83,-2.54l1.22 0zm-7.13 18.5c-1.18,0 -2.25,0.3 -3.21,0.92 -0.97,0.61 -1.68,1.42 -2.13,2.44l0 2.21c0,2.44 0.48,4.34 1.44,5.7 0.97,1.37 2.31,2.06 4.05,2.06 1.57,0 2.84,-0.61 3.81,-1.85 0.97,-1.24 1.46,-2.83 1.46,-4.8 0,-2 -0.49,-3.6 -1.47,-4.83 -0.98,-1.23 -2.3,-1.84 -3.95,-1.84z"/>
  <path class="fil0" d="M29.76 269.97l-4.65 0 -6.8 -15.1 0 15.1 -4.65 0 0 -23.03 4.65 0 6.82 15.12 0 -15.12 4.63 0 0 23.03zm15.01 -4.7l-6.34 0 -1.24 4.7 -4.92 0 7.2 -23.03 4.25 0 7.24 23.03 -4.97 0 -1.24 -4.7zm-5.33 -3.89l4.3 0 -2.15 -8.22 -2.15 8.22zm28.95 0.92c-0.11,2.63 -0.85,4.62 -2.21,5.96 -1.36,1.35 -3.28,2.02 -5.75,2.02 -2.61,0 -4.6,-0.86 -5.99,-2.57 -1.39,-1.72 -2.08,-4.16 -2.08,-7.34l0 -3.88c0,-3.16 0.72,-5.6 2.15,-7.32 1.44,-1.71 3.43,-2.57 5.98,-2.57 2.5,0 4.42,0.7 5.72,2.1 1.3,1.4 2.04,3.42 2.22,6.04l-4.66 0c-0.04,-1.62 -0.29,-2.74 -0.75,-3.36 -0.46,-0.62 -1.3,-0.92 -2.52,-0.92 -1.25,0 -2.13,0.44 -2.65,1.31 -0.51,0.87 -0.79,2.3 -0.82,4.3l0 4.36c0,2.29 0.25,3.86 0.77,4.72 0.51,0.86 1.39,1.28 2.63,1.28 1.22,0 2.07,-0.3 2.53,-0.9 0.46,-0.59 0.72,-1.67 0.79,-3.23l4.65 0zm7.72 7.66l-4.65 0 0 -23.03 4.65 0 0 23.03zm9.98 -23.03l4.35 16.65 4.33 -16.65 6.07 0 0 23.03 -4.66 0 0 -6.23 0.43 -9.6 -4.6 15.83 -3.16 0 -4.6 -15.83 0.43 9.6 0 6.23 -4.65 0 0 -23.03 6.07 0zm23.34 23.03l-4.65 0 0 -23.03 4.65 0 0 23.03zm15.8 -9.94l-7.24 0 0 6.09 8.57 0 0 3.85 -13.22 0 0 -23.03 13.19 0 0 3.89 -8.54 0 0 5.44 7.24 0 0 3.76zm20.09 9.94l-4.65 0 -6.8 -15.1 0 15.1 -4.65 0 0 -23.03 4.65 0 6.82 15.12 0 -15.12 4.63 0 0 23.03zm18.19 -19.14l-5.69 0 0 19.14 -4.66 0 0 -19.14 -5.6 0 0 -3.89 15.96 0 0 3.89zm18.45 9.7c0,3.09 -0.73,5.49 -2.19,7.2 -1.46,1.71 -3.49,2.56 -6.08,2.56 -2.59,0 -4.61,-0.85 -6.09,-2.54 -1.47,-1.69 -2.22,-4.06 -2.25,-7.11l0 -3.94c0,-3.17 0.73,-5.64 2.2,-7.42 1.47,-1.78 3.5,-2.67 6.1,-2.67 2.56,0 4.58,0.87 6.06,2.62 1.48,1.75 2.22,4.2 2.25,7.35l0 3.94zm-4.66 -3.87c0,-2.08 -0.3,-3.62 -0.89,-4.64 -0.59,-1.01 -1.51,-1.52 -2.75,-1.52 -1.23,0 -2.14,0.49 -2.74,1.46 -0.59,0.98 -0.9,2.46 -0.92,4.45l0 4.1c0,2.02 0.3,3.5 0.9,4.46 0.6,0.96 1.53,1.43 2.78,1.43 1.21,0 2.12,-0.46 2.7,-1.4 0.59,-0.93 0.89,-2.39 0.9,-4.35l0 -4.01z"/>
  <path class="fil3 str0" d="M193.58 104.44l0 -65.4c0,-19.79 -16.19,-35.98 -35.98,-35.98l-118.55 0c-19.79,0 -35.98,16.19 -35.98,35.98l0 62.9"/>
 </g>
</svg>
