<?xml version="1.0" encoding="UTF-8"?>
<!DOCTYPE svg PUBLIC "-//W3C//DTD SVG 1.1//EN" "http://www.w3.org/Graphics/SVG/1.1/DTD/svg11.dtd">
<!-- Creator: CorelDRAW -->
<svg xmlns="http://www.w3.org/2000/svg" xml:space="preserve" width="32.1292mm" height="44.5804mm" version="1.1" style="shape-rendering:geometricPrecision; text-rendering:geometricPrecision; image-rendering:optimizeQuality; fill-rule:evenodd; clip-rule:evenodd"
viewBox="0 0 268.11 372.01"
 xmlns:xlink="http://www.w3.org/1999/xlink"
 xmlns:xodm="http://www.corel.com/coreldraw/odm/2003">
 <defs>
  <style type="text/css">
   <![CDATA[
    .str0 {stroke:#0092D1;stroke-width:8.34;stroke-miterlimit:22.9256}
    .fil3 {fill:none}
    .fil1 {fill:#0092D1}
    .fil2 {fill:#FEFEFE;fill-rule:nonzero}
    .fil0 {fill:#0092D1;fill-rule:nonzero}
   ]]>
  </style>
 </defs>
 <g id="Capa_x0020_1">
  <metadata id="CorelCorpID_0Corel-Layer"/>
  <path class="fil0" d="M134.06 109.44c-5.86,0 -10.84,-2.05 -14.94,-6.15 -4.1,-4.1 -6.15,-9.08 -6.15,-14.94 0,-5.86 2.05,-10.84 6.15,-14.94 4.1,-4.1 9.08,-6.15 14.94,-6.15 5.86,0 10.84,2.05 14.94,6.15 4.1,4.1 6.15,9.08 6.15,14.94 0,5.86 -2.05,10.84 -6.15,14.94 -4.1,4.1 -9.08,6.15 -14.94,6.15zm-42.18 70.3l0 -54.31c-4.45,-4.92 -7.91,-10.55 -10.37,-16.87 -2.46,-6.33 -3.69,-13.06 -3.69,-20.21 0,-15.7 5.45,-29 16.35,-39.89 10.9,-10.9 24.19,-16.34 39.89,-16.34 15.7,0 29,5.45 39.89,16.34 10.9,10.9 16.35,24.19 16.35,39.89 0,7.15 -1.23,13.89 -3.69,20.21 -2.46,6.33 -5.92,11.95 -10.37,16.87l0 54.31 -42.18 -14.06 -42.18 14.06zm42.18 -49.21c11.72,0 21.68,-4.1 29.88,-12.3 8.2,-8.2 12.3,-18.16 12.3,-29.88 0,-11.72 -4.1,-21.68 -12.3,-29.88 -8.2,-8.2 -18.16,-12.3 -29.88,-12.3 -11.72,0 -21.68,4.1 -29.88,12.3 -8.2,8.2 -12.3,18.16 -12.3,29.88 0,11.72 4.1,21.68 12.3,29.88 8.2,8.2 18.16,12.3 29.88,12.3zm-28.12 28.3l28.12 -7.21 28.12 7.21 0 -21.79c-4.1,2.34 -8.52,4.19 -13.27,5.53 -4.75,1.35 -9.7,2.02 -14.85,2.02 -5.15,0 -10.1,-0.68 -14.85,-2.02 -4.75,-1.35 -9.17,-3.19 -13.27,-5.53l0 21.79zm28.12 -10.9z"/>
  <path class="fil1" d="M53.23 300.34l161.64 0c26.98,0 49.06,-22.08 49.06,-49.06l0 -49.06 -259.77 0 0 49.06c0,26.98 22.08,49.06 49.06,49.06z"/>
  <path class="fil2" d="M91.1 276.4l-34.43 0 0 -6.84 16.25 -17.32c2.23,-2.44 3.87,-4.56 4.95,-6.38 1.07,-1.81 1.6,-3.53 1.6,-5.17 0,-2.23 -0.57,-3.98 -1.68,-5.25 -1.13,-1.28 -2.74,-1.92 -4.83,-1.92 -2.26,0 -4.04,0.78 -5.33,2.33 -1.3,1.54 -1.96,3.58 -1.96,6.11l-10 0c0,-3.06 0.73,-5.85 2.19,-8.38 1.46,-2.53 3.52,-4.52 6.19,-5.96 2.66,-1.44 5.69,-2.15 9.07,-2.15 5.18,0 9.2,1.25 12.06,3.73 2.86,2.49 4.3,5.99 4.3,10.52 0,2.48 -0.65,5.02 -1.93,7.59 -1.28,2.58 -3.5,5.58 -6.63,9.01l-11.41 12.03 21.6 0 0 8.05zm39.91 -20.77c0,6.96 -1.44,12.27 -4.31,15.96 -2.87,3.69 -7.09,5.52 -12.62,5.52 -5.48,0 -9.67,-1.8 -12.56,-5.42 -2.9,-3.62 -4.38,-8.8 -4.45,-15.54l0 -9.24c0,-7.03 1.46,-12.35 4.37,-15.99 2.91,-3.64 7.1,-5.45 12.58,-5.45 5.46,0 9.66,1.8 12.55,5.4 2.9,3.6 4.38,8.77 4.45,15.52l0 9.24zm-9.97 -10.16c0,-4.17 -0.56,-7.21 -1.71,-9.1 -1.13,-1.9 -2.91,-2.85 -5.32,-2.85 -2.35,0 -4.09,0.91 -5.19,2.71 -1.12,1.81 -1.71,4.64 -1.78,8.48l0 12.23c0,4.1 0.55,7.14 1.67,9.13 1.12,1.99 2.91,2.99 5.37,2.99 2.44,0 4.19,-0.95 5.27,-2.86 1.08,-1.92 1.64,-4.84 1.68,-8.77l0 -11.95zm51.13 30.93l-34.43 0 0 -6.84 16.25 -17.32c2.23,-2.44 3.87,-4.56 4.95,-6.38 1.07,-1.81 1.6,-3.53 1.6,-5.17 0,-2.23 -0.57,-3.98 -1.68,-5.25 -1.13,-1.28 -2.74,-1.92 -4.83,-1.92 -2.26,0 -4.04,0.78 -5.33,2.33 -1.3,1.54 -1.96,3.58 -1.96,6.11l-10 0c0,-3.06 0.73,-5.85 2.19,-8.38 1.46,-2.53 3.52,-4.52 6.19,-5.96 2.66,-1.44 5.69,-2.15 9.07,-2.15 5.18,0 9.2,1.25 12.06,3.73 2.86,2.49 4.3,5.99 4.3,10.52 0,2.48 -0.65,5.02 -1.93,7.59 -1.28,2.58 -3.5,5.58 -6.63,9.01l-11.41 12.03 21.6 0 0 8.05zm7.58 -24.7l2.9 -25.53 28.16 0 0 8.34 -19.98 0 -1.24 10.79c2.37,-1.26 4.89,-1.88 7.55,-1.88 4.79,0 8.54,1.48 11.26,4.45 2.71,2.97 4.06,7.11 4.06,12.45 0,3.25 -0.68,6.15 -2.05,8.71 -1.37,2.57 -3.33,4.56 -5.89,5.97 -2.54,1.41 -5.56,2.12 -9.03,2.12 -3.04,0 -5.85,-0.61 -8.45,-1.85 -2.6,-1.24 -4.65,-2.97 -6.16,-5.2 -1.51,-2.23 -2.31,-4.77 -2.4,-7.63l9.87 0c0.21,2.1 0.94,3.72 2.19,4.89 1.26,1.17 2.9,1.74 4.92,1.74 2.25,0 3.99,-0.81 5.2,-2.44 1.22,-1.61 1.84,-3.91 1.84,-6.89 0,-2.85 -0.71,-5.04 -2.11,-6.56 -1.4,-1.52 -3.39,-2.27 -5.97,-2.27 -2.37,0 -4.29,0.62 -5.76,1.86l-0.97 0.91 -7.94 -1.97z"/>
  <path class="fil0" d="M37.9 361.13c-0.15,3.58 -1.16,6.29 -3.02,8.13 -1.85,1.84 -4.47,2.76 -7.84,2.76 -3.55,0 -6.27,-1.17 -8.16,-3.5 -1.89,-2.34 -2.83,-5.67 -2.83,-10l0 -5.29c0,-4.31 0.98,-7.64 2.93,-9.98 1.96,-2.33 4.67,-3.5 8.15,-3.5 3.41,0 6.02,0.96 7.79,2.86 1.77,1.91 2.78,4.66 3.02,8.24l-6.36 0c-0.06,-2.22 -0.4,-3.74 -1.02,-4.59 -0.63,-0.84 -1.77,-1.26 -3.44,-1.26 -1.7,0 -2.9,0.6 -3.61,1.78 -0.7,1.19 -1.07,3.14 -1.12,5.87l0 5.94c0,3.12 0.35,5.27 1.04,6.43 0.7,1.17 1.89,1.75 3.59,1.75 1.66,0 2.82,-0.4 3.45,-1.22 0.63,-0.81 0.99,-2.28 1.07,-4.41l6.34 0zm20.13 -3.11l-9.88 0 0 8.3 11.69 0 0 5.25 -18.02 0 0 -31.4 17.98 0 0 5.3 -11.64 0 0 7.42 9.88 0 0 5.12zm14.97 2.12l-3.15 0 0 11.44 -6.34 0 0 -31.4 10.11 0c3.17,0 5.63,0.82 7.36,2.47 1.73,1.65 2.6,4 2.6,7.03 0,4.18 -1.52,7.1 -4.55,8.77l5.5 12.82 0 0.3 -6.82 0 -4.72 -11.44zm-3.15 -5.3l3.6 0c1.27,0 2.21,-0.42 2.85,-1.26 0.63,-0.85 0.95,-1.97 0.95,-3.38 0,-3.15 -1.23,-4.72 -3.69,-4.72l-3.71 0 0 9.36zm37.34 -9.36l-7.76 0 0 26.1 -6.36 0 0 -26.1 -7.64 0 0 -5.3 21.76 0 0 5.3zm10.27 26.1l-6.34 0 0 -31.4 6.34 0 0 31.4zm21.52 -12.81l-9.85 0 0 12.81 -6.34 0 0 -31.4 17.38 0 0 5.3 -11.04 0 0 8.04 9.85 0 0 5.25zm-0.91 9.68c0,-0.97 0.33,-1.78 0.98,-2.41 0.66,-0.63 1.51,-0.95 2.56,-0.95 1.02,0 1.86,0.32 2.54,0.94 0.68,0.63 1.02,1.44 1.02,2.42 0,1.01 -0.34,1.82 -1.02,2.43 -0.68,0.61 -1.53,0.92 -2.53,0.92 -1.02,0 -1.87,-0.31 -2.54,-0.93 -0.66,-0.62 -1,-1.43 -1,-2.42zm29.45 3.13l-6.34 0 0 -31.4 6.34 0 0 31.4zm14.84 -11.44l-3.15 0 0 11.44 -6.34 0 0 -31.4 10.11 0c3.17,0 5.63,0.82 7.36,2.47 1.73,1.65 2.6,4 2.6,7.03 0,4.18 -1.52,7.1 -4.55,8.77l5.5 12.82 0 0.3 -6.82 0 -4.72 -11.44zm-3.15 -5.3l3.6 0c1.27,0 2.21,-0.42 2.85,-1.26 0.63,-0.85 0.95,-1.97 0.95,-3.38 0,-3.15 -1.23,-4.72 -3.69,-4.72l-3.71 0 0 9.36zm33.06 10.33l-8.64 0 -1.69 6.4 -6.71 0 9.81 -31.4 5.8 0 9.88 31.4 -6.77 0 -1.68 -6.4zm-7.26 -5.3l5.87 0 -2.93 -11.2 -2.94 11.2zm26.94 -19.69l5.92 22.7 5.91 -22.7 8.28 0 0 31.4 -6.36 0 0 -8.49 0.58 -13.09 -6.27 21.59 -4.31 0 -6.28 -21.59 0.58 13.09 0 8.49 -6.34 0 0 -31.4 8.28 0z"/>
  <path class="fil3 str0" d="M263.94 142.4l0 -89.17c0,-26.98 -22.08,-49.06 -49.06,-49.06l-161.64 0c-26.98,0 -49.06,22.08 -49.06,49.06l0 85.76"/>
 </g>
</svg>
