<?xml version="1.0" encoding="UTF-8"?>
<!DOCTYPE svg PUBLIC "-//W3C//DTD SVG 1.1//EN" "http://www.w3.org/Graphics/SVG/1.1/DTD/svg11.dtd">
<!-- Creator: CorelDRAW -->
<svg xmlns="http://www.w3.org/2000/svg" xml:space="preserve" width="32.3469mm" height="45.2004mm" version="1.1" style="shape-rendering:geometricPrecision; text-rendering:geometricPrecision; image-rendering:optimizeQuality; fill-rule:evenodd; clip-rule:evenodd"
viewBox="0 0 23746.58 33182.62"
 xmlns:xlink="http://www.w3.org/1999/xlink"
 xmlns:xodm="http://www.corel.com/coreldraw/odm/2003">
 <defs>
  <style type="text/css">
   <![CDATA[
    .str0 {stroke:#0092D1;stroke-width:734.12;stroke-miterlimit:22.9256}
    .fil3 {fill:none}
    .fil0 {fill:#0092D1}
    .fil1 {fill:#FEFEFE;fill-rule:nonzero}
    .fil2 {fill:#0092D1;fill-rule:nonzero}
   ]]>
  </style>
 </defs>
 <g id="Capa_x0020_1">
  <metadata id="CorelCorpID_0Corel-Layer"/>
  <path class="fil0" d="M4763.13 26422.09l14220.24 0c2373.93,0 4316.2,-1942.27 4316.2,-4316.2l0 -4316.35 -22852.64 0 0 4316.35c0,2373.93 1942.27,4316.2 4316.2,4316.2z"/>
  <path class="fil1" d="M8116.9 24315.45l-3029.06 0 0 -601.91 1429.63 -1523.82c195.79,-214.44 340.78,-400.9 435.04,-561.46 94.33,-159.52 140.95,-310.83 140.95,-454.79 0,-195.79 -49.77,-350.18 -148.15,-462.06 -99.47,-112.91 -241.38,-168.85 -424.76,-168.85 -198.87,0 -355.32,68.35 -469.25,205.11 -113.94,135.74 -172,314.94 -172,537.67l-879.48 0c0,-269.35 64.24,-514.84 192.71,-737.57 128.4,-222.73 309.73,-397.82 544.87,-524.24 234.11,-126.34 500.38,-189.55 797.7,-189.55 455.82,0 809,109.82 1060.73,328.37 251.73,218.62 378.15,527.32 378.15,925.14 0,218.55 -56.97,441.28 -169.88,668.12 -112.91,226.92 -307.67,491.05 -583.26,792.49l-1003.77 1058.75 1899.84 0 0 708.57zm3510.87 -1827.38c0,612.26 -126.42,1079.45 -379.17,1403.72 -252.76,324.19 -623.64,485.84 -1110.51,485.84 -481.73,0 -850.55,-158.5 -1105.37,-476.52 -254.81,-318.1 -385.34,-773.91 -391.58,-1367.45l0 -813.19c0,-618.5 128.47,-1086.72 384.31,-1406.8 255.92,-320.15 624.66,-479.68 1106.4,-479.68 480.7,0 849.45,158.5 1104.27,475.49 254.89,316.99 385.41,771.78 391.65,1365.39l0 813.19zm-877.5 -894.01c0,-366.69 -49.7,-633.99 -150.2,-800.78 -99.4,-166.79 -255.84,-250.7 -468.22,-250.7 -207.17,0 -359.5,79.8 -456.84,238.3 -98.45,159.52 -150.2,408.1 -156.44,745.87l0 1076.3c0,360.53 48.67,627.82 147.12,802.84 98.45,175.09 255.84,263.18 472.41,263.18 214.44,0 368.75,-83.91 464.04,-251.73 95.36,-168.92 144.03,-425.79 148.15,-771.78l0 -1051.48zm3598.89 2721.39l-877.42 0 0 -3387.53 -1047.37 323.23 0 -708.57 1830.53 -652.63 94.26 0 0 4425.51zm2327.76 -2598.13l467.2 0c222.73,0 387.47,-55.94 495.17,-166.79 106.74,-111.88 160.63,-258.92 160.63,-443.34 0,-178.17 -52.86,-316.99 -159.6,-415.44 -105.64,-99.47 -251.73,-149.17 -438.2,-149.17 -167.82,0 -308.7,45.59 -421.61,137.79 -113.94,92.21 -169.88,211.35 -169.88,359.43l-877.42 0c0,-230.95 62.11,-438.2 186.47,-621.51 124.29,-183.38 298.35,-326.32 522.11,-428.87 223.76,-103.58 470.28,-155.41 738.6,-155.41 468.22,0 833.96,111.88 1099.13,335.64 265.17,223.76 397.82,531.43 397.82,924.04 0,202.03 -62.18,388.5 -185.44,558.37 -123.26,169.88 -284.91,300.4 -485.84,391.58 249.6,89.12 435.04,222.73 557.27,401.93 122.3,178.17 183.38,388.5 183.38,631.93 0,392.61 -142.93,707.55 -428.87,944.82 -286.97,237.19 -665.04,355.32 -1137.45,355.32 -440.25,0 -800.78,-116.06 -1081.51,-349.15 -279.7,-233.08 -420.58,-540.75 -420.58,-923.01l877.42 0c0,165.76 62.18,300.4 186.47,406.12 124.29,104.61 277.65,157.47 459.93,157.47 208.27,0 371.91,-54.91 490.03,-165.76 118.12,-110.85 178.17,-256.94 178.17,-439.23 0,-442.38 -243.43,-662.99 -729.28,-662.99l-464.11 0 0 -683.76z"/>
  <path class="fil2" d="M1054.05 31142.5l537.38 0 0 497.22 -537.38 0 0 771.78 -508.23 0 0 -771.78 -545.82 0 0 -497.22 545.82 0 0 -740.07 508.23 0 0 740.07zm2515.98 -1215.93l521.23 1997.4 519.91 -1997.4 728.4 0 0 2762.06 -559.4 0 0 -747.19 51.09 -1151.84 -551.62 1899.03 -379.39 0 -552.28 -1899.03 51.17 1151.84 0 747.19 -557.49 0 0 -2762.06 728.4 0zm3569.45 2198.77l-760.11 0 -148.29 563.29 -589.87 0 863.11 -2762.06 510.22 0 868.83 2762.06 -595.67 0 -148.22 -563.29zm-639.05 -466.17l516.01 0 -257.68 -985.41 -258.34 985.41zm3544.12 -137.28c0,457.14 -122.97,789.25 -369.7,996.42l381.38 341.88 -350.91 322.43 -508.23 -464.85 -146.38 9.69c-312.08,0 -556.76,-106.15 -732.87,-317.87 -176.78,-211.72 -265.46,-505 -266.78,-879.92l0 -432.47c0,-380.06 88.09,-676.64 263.55,-889.61 176.12,-213.04 420.21,-319.86 732.29,-319.86 304.95,0 545.75,102.26 722.52,307.52 177.44,205.26 269.35,492.74 275.15,863.69l0 462.94zm-559.4 -429.9c0,-251.88 -36.27,-437.68 -108.06,-558.08 -71.87,-119.81 -181.99,-180.01 -330.21,-180.01 -147.63,0 -257.09,58.29 -328.3,175.46 -70.55,117.17 -107.48,295.26 -109.38,534.15l0 457.73c0,253.2 36.19,439.67 108.72,560.06 72.53,119.81 183.9,180.01 332.78,180.01 145.72,0 253.86,-59.54 325.73,-179.35 71.21,-119.74 107.48,-302.39 108.72,-547.73l0 -442.24zm2756.26 -1165.42l0 1912.61c-2.64,287.48 -81.63,506.91 -236.97,659.76 -155.41,152.11 -378.81,228.53 -669.52,228.53 -295.85,0 -521.81,-77.01 -678.55,-231.76 -156,-154.09 -233.67,-377.49 -233.67,-669.52l0 -1899.62 561.31 0 0 1902.26c0,156.66 25.25,268.69 75.76,336.01 50.51,66.66 142.42,100.35 275.15,100.35 132.73,0 224.05,-33.04 273.24,-99.69 49.19,-66.73 74.44,-175.46 75.76,-327.64l0 -1911.29 557.49 0zm1006.11 2762.06l-557.49 0 0 -2762.06 557.49 0 0 2762.06zm2398.82 0l-557.49 0 -815.76 -1811.59 0 1811.59 -557.49 0 0 -2762.06 557.49 0 817.74 1813.5 0 -1813.5 555.51 0 0 2762.06zm1800.58 -563.29l-760.11 0 -148.29 563.29 -589.87 0 863.11 -2762.06 510.22 0 868.83 2762.06 -595.67 0 -148.22 -563.29zm-639.05 -466.17l516.01 0 -257.68 -985.41 -258.34 985.41zm2478.47 23.27l-277.13 0 0 1006.19 -557.49 0 0 -2762.06 889.61 0c279.11,0 495.31,72.53 647.5,217.52 152.11,145.06 228.53,351.57 228.53,618.35 0,367.72 -133.39,624.81 -400.1,771.78l483.64 1127.83 0 26.58 -599.56 0 -415 -1006.19zm-277.13 -466.17l316.63 0c111.37,0 194.84,-36.85 250.56,-110.71 55.65,-74.44 83.54,-173.47 83.54,-297.17 0,-277.13 -108.14,-415.66 -324.41,-415.66l-326.32 0 0 823.54zm2172.86 1472.36l-557.49 0 0 -2762.06 557.49 0 0 2762.06zm1820.62 -563.29l-760.11 0 -148.29 563.29 -589.87 0 863.11 -2762.06 510.22 0 868.83 2762.06 -595.67 0 -148.22 -563.29zm-639.05 -466.17l516.01 0 -257.68 -985.41 -258.34 985.41z"/>
  <path class="fil2" d="M7070.85 15462.31l0 -1797.43 1857.18 0.22 -1527.71 -5002.53c-269.42,-149.69 -491.57,-369.34 -666.36,-658.95 -174.79,-289.61 -262.23,-599.12 -262.23,-928.59 0,-499.28 174.79,-923.6 524.16,-1273.19 349.66,-349.44 773.99,-524.24 1273.26,-524.24 389.45,0 736.32,112.32 1040.91,337.18 304.51,224.64 516.68,511.76 636.48,861.13l1917.23 0 0 -599.12c0,-169.88 57.26,-312.08 172.3,-426.89 114.82,-114.74 257.02,-172.3 426.82,-172.3 89.86,0 177.07,20.19 262.01,60.05 84.86,39.79 157.32,99.84 217.08,179.79l1018.52 -958.54c89.93,-89.86 197.26,-147.41 321.99,-172.3 125.02,-25.11 247.25,-7.49 367.06,52.34l2336.56 1078.5c119.74,59.76 202.18,147.12 247.03,261.93 45.08,114.82 42.58,227.14 -7.49,336.96 -59.98,119.74 -147.19,197.19 -262.01,232.28 -115.04,34.87 -227.28,27.46 -337.11,-22.39l-2156.78 -988.57 -1407.97 1318.04 0 838.66 1407.97 1288.16 2156.78 -988.57c109.82,-50.07 224.57,-54.99 344.6,-14.98 119.81,39.86 204.67,114.82 254.52,224.64 59.98,119.81 64.97,234.63 14.98,344.45 -49.85,109.75 -134.78,194.69 -254.52,254.67l-2336.56 1108.45c-119.81,59.76 -242.04,77.16 -367.06,52.27 -124.73,-24.89 -232.06,-82.44 -321.99,-172.3l-1018.52 -958.47c-59.76,59.98 -132.22,114.74 -217.08,164.81 -84.94,49.85 -172.15,74.73 -262.01,74.73 -169.8,0 -312,-57.26 -426.82,-172.08 -115.04,-114.82 -172.3,-257.24 -172.3,-427.04l0 -599.19 -1917.23 0.22c-29.88,79.95 -62.25,154.68 -97.34,224.64 -34.87,69.96 -82.44,144.7 -142.2,224.64l2995.44 5541.67 2156.78 0 0 1797.2 -7788.38 0zm1198.31 -7788.16c169.8,0 312,-57.48 426.82,-172.3 114.82,-114.82 172.3,-257.24 172.3,-426.82 0,-169.8 -57.48,-312 -172.3,-426.82 -114.82,-114.82 -257.02,-172.3 -426.82,-172.3 -169.8,0 -312,57.48 -426.82,172.3 -114.82,114.82 -172.3,257.02 -172.3,426.82 0,169.8 57.48,312 172.3,426.82 114.82,114.82 257.02,172.3 426.82,172.3zm1887.06 5990.95l1168.43 0 -2576.11 -4792.86 -60.05 0 1467.73 4792.86zm1168.43 0z"/>
  <path class="fil3 str0" d="M23299.58 12527.87l0 -7844.61c0,-2373.93 -1942.27,-4316.2 -4316.2,-4316.2l-14220.24 0c-2373.93,0 -4316.2,1942.27 -4316.2,4316.2l0 7544.58"/>
 </g>
</svg>
