<?xml version="1.0" encoding="UTF-8"?>
<!DOCTYPE svg PUBLIC "-//W3C//DTD SVG 1.1//EN" "http://www.w3.org/Graphics/SVG/1.1/DTD/svg11.dtd">
<!-- Creator: CorelDRAW -->
<svg xmlns="http://www.w3.org/2000/svg" xml:space="preserve" width="6.0826mm" height="6.9048mm" version="1.1" style="shape-rendering:geometricPrecision; text-rendering:geometricPrecision; image-rendering:optimizeQuality; fill-rule:evenodd; clip-rule:evenodd"
viewBox="0 0 121.21 137.59"
 xmlns:xlink="http://www.w3.org/1999/xlink"
 xmlns:xodm="http://www.corel.com/coreldraw/odm/2003">
 <defs>
  <style type="text/css">
   <![CDATA[
    .fil0 {fill:#0092D1;fill-rule:nonzero}
   ]]>
  </style>
 </defs>
 <g id="Capa_x0020_1">
  <metadata id="CorelCorpID_0Corel-Layer"/>
  <path class="fil0" d="M21.29 137.59l0 -53.89 -21.29 -34.56 30.3 -49.14 60.6 0 30.3 49.14 -21.29 34.56 0 53.89 -39.31 -13.1 -39.31 13.1 0 -0zm13.1 -18.18l26.21 -8.68 26.21 8.68 0 -21.13 -52.41 0 0 21.13zm3.28 -106.3l-22.28 36.04 22.28 36.03 45.86 0 22.28 -36.03 -22.28 -36.04 -45.86 0zm16.05 62.73l-23.26 -23.09 9.33 -9.34 13.92 13.92 27.68 -27.85 9.33 9.17 -37.02 37.18 0 0zm-19.33 22.44l52.41 0 -52.41 0z"/>
 </g>
</svg>
