<?xml version="1.0" encoding="UTF-8"?>
<!DOCTYPE svg PUBLIC "-//W3C//DTD SVG 1.1//EN" "http://www.w3.org/Graphics/SVG/1.1/DTD/svg11.dtd">
<!-- Creator: CorelDRAW -->
<svg xmlns="http://www.w3.org/2000/svg" xml:space="preserve" width="7.6625mm" height="5.4488mm" version="1.1" style="shape-rendering:geometricPrecision; text-rendering:geometricPrecision; image-rendering:optimizeQuality; fill-rule:evenodd; clip-rule:evenodd"
viewBox="0 0 198.32 141.02"
 xmlns:xlink="http://www.w3.org/1999/xlink"
 xmlns:xodm="http://www.corel.com/coreldraw/odm/2003">
 <defs>
  <style type="text/css">
   <![CDATA[
    .fil0 {fill:#0092D1;fill-rule:nonzero}
   ]]>
  </style>
 </defs>
 <g id="Capa_x0020_1">
  <metadata id="CorelCorpID_0Corel-Layer"/>
  <path class="fil0" d="M57.29 141.02c-7.35,0 -13.59,-2.57 -18.73,-7.71 -5.14,-5.15 -7.71,-11.39 -7.71,-18.73l-22.03 0 3.97 -17.63 24.9 0c2.5,-2.79 5.43,-4.96 8.82,-6.5 3.38,-1.54 6.98,-2.31 10.8,-2.31 3.82,0 7.42,0.77 10.8,2.31 3.38,1.54 6.32,3.71 8.81,6.5l36.8 0 18.51 -79.33 -96.51 0 0.88 -3.75c0.88,-4.11 2.9,-7.45 6.06,-10.03 3.16,-2.57 6.87,-3.86 11.13,-3.86l100.48 0 -8.15 35.25 25.78 0 26.44 35.26 -8.82 44.07 -17.63 0c0,7.35 -2.57,13.59 -7.71,18.73 -5.14,5.14 -11.39,7.71 -18.73,7.71 -7.35,0 -13.59,-2.57 -18.73,-7.71 -5.15,-5.15 -7.71,-11.39 -7.71,-18.73l-35.26 0c0,7.35 -2.57,13.59 -7.71,18.73 -5.14,5.14 -11.38,7.71 -18.73,7.71zm78.66 -61.7l42.53 0 0.88 -4.63 -16.31 -21.81 -20.93 -0.01 -6.17 26.44 0 0.01zm-4.19 -60.16l0.44 -1.54 -18.51 79.33 0.44 -1.54 7.49 -32.17 10.14 -44.07 0 -0zm-131.77 63.02l4.41 -17.63 48.48 0 -4.41 17.63 -48.48 0zm17.63 -32.17l4.41 -17.63 57.29 0 -4.41 17.63 -57.29 -0zm39.66 73.38c2.5,0 4.59,-0.85 6.28,-2.54 1.69,-1.69 2.54,-3.78 2.54,-6.28 0,-2.5 -0.85,-4.59 -2.54,-6.28 -1.69,-1.69 -3.78,-2.54 -6.28,-2.54 -2.5,0 -4.59,0.85 -6.28,2.54 -1.69,1.69 -2.54,3.78 -2.54,6.28 0,2.5 0.85,4.59 2.54,6.28 1.69,1.69 3.78,2.54 6.28,2.54zm88.14 0c2.5,0 4.59,-0.85 6.28,-2.54 1.69,-1.69 2.53,-3.78 2.53,-6.28 0,-2.5 -0.84,-4.59 -2.53,-6.28 -1.69,-1.69 -3.78,-2.54 -6.28,-2.54 -2.5,0 -4.59,0.85 -6.28,2.54 -1.69,1.69 -2.54,3.78 -2.54,6.28 0,2.5 0.85,4.59 2.54,6.28 1.69,1.69 3.78,2.54 6.28,2.54z"/>
 </g>
</svg>
