<?xml version="1.0" encoding="UTF-8"?>
<!DOCTYPE svg PUBLIC "-//W3C//DTD SVG 1.1//EN" "http://www.w3.org/Graphics/SVG/1.1/DTD/svg11.dtd">
<!-- Creator: CorelDRAW -->
<svg xmlns="http://www.w3.org/2000/svg" xml:space="preserve" width="6.204mm" height="6.8933mm" version="1.1" style="shape-rendering:geometricPrecision; text-rendering:geometricPrecision; image-rendering:optimizeQuality; fill-rule:evenodd; clip-rule:evenodd"
viewBox="0 0 125.26 139.17"
 xmlns:xlink="http://www.w3.org/1999/xlink"
 xmlns:xodm="http://www.corel.com/coreldraw/odm/2003">
 <defs>
  <style type="text/css">
   <![CDATA[
    .fil0 {fill:#0092D1;fill-rule:nonzero}
   ]]>
  </style>
 </defs>
 <g id="Capa_x0020_1">
  <metadata id="CorelCorpID_0Corel-Layer"/>
  <path class="fil0" d="M55.67 121.26l0 -47.67 -41.75 -24.18 0 47.67 41.75 24.18zm13.92 0l41.75 -24.18 0 -47.67 -41.75 24.18 0 47.67zm-13.92 16.01l-48.71 -28.01c-2.2,-1.28 -3.91,-2.96 -5.13,-5.05 -1.22,-2.09 -1.83,-4.41 -1.83,-6.96l0 -55.32c0,-2.55 0.61,-4.87 1.83,-6.96 1.22,-2.09 2.93,-3.77 5.13,-5.04l48.71 -28.01c2.2,-1.28 4.52,-1.91 6.96,-1.91 2.43,0 4.75,0.64 6.96,1.91l48.71 28.01c2.2,1.28 3.91,2.96 5.13,5.05 1.22,2.09 1.83,4.41 1.83,6.96l0 55.32c0,2.55 -0.61,4.87 -1.83,6.96 -1.22,2.09 -2.93,3.77 -5.13,5.05l-48.71 28.01c-2.2,1.28 -4.52,1.91 -6.96,1.91 -2.43,0 -4.75,-0.64 -6.96,-1.91zm34.79 -91.85l13.39 -7.65 -41.23 -23.83 -13.57 7.83 41.41 23.66 0 -0zm-27.84 16.18l13.57 -7.83 -41.23 -23.83 -13.57 7.83 41.23 23.84z"/>
 </g>
</svg>
