<?xml version="1.0" encoding="UTF-8"?>
<!DOCTYPE svg PUBLIC "-//W3C//DTD SVG 1.1//EN" "http://www.w3.org/Graphics/SVG/1.1/DTD/svg11.dtd">
<!-- Creator: CorelDRAW -->
<svg xmlns="http://www.w3.org/2000/svg" xml:space="preserve" width="40.8637mm" height="40.0816mm" version="1.1" style="shape-rendering:geometricPrecision; text-rendering:geometricPrecision; image-rendering:optimizeQuality; fill-rule:evenodd; clip-rule:evenodd"
viewBox="0 0 614.35 602.59"
 xmlns:xlink="http://www.w3.org/1999/xlink"
 xmlns:xodm="http://www.corel.com/coreldraw/odm/2003">
 <defs>
  <style type="text/css">
   <![CDATA[
    .fil0 {fill:#D2D3D5}
    .fil1 {fill:#0092D1}
    .fil2 {fill:#FEFEFE;fill-rule:nonzero}
   ]]>
  </style>
 </defs>
 <g id="Capa_x0020_1">
  <metadata id="CorelCorpID_0Corel-Layer"/>
  <rect class="fil0" x="-0" y="-0" width="614.35" height="602.59" rx="301.29" ry="301.29"/>
  <g id="_2169457454784">
   <circle class="fil1" cx="307.17" cy="301.29" r="268.59"/>
   <path class="fil2" d="M251.32 473.77l-31.21 -52.57 -59.13 -13.14 5.75 -60.78 -40.24 -45.99 40.24 -45.99 -5.75 -60.78 59.13 -13.14 31.21 -52.57 55.85 23.82 55.85 -23.82 31.21 52.57 59.13 13.14 -5.75 60.78 40.24 45.99 -40.24 45.99 5.75 60.78 -59.13 13.14 -31.21 52.57 -55.85 -23.82 -55.85 23.82zm13.96 -41.89l41.89 -18.07 42.71 18.07 22.99 -39.42 45.17 -10.68 -4.1 -45.99 30.39 -34.49 -30.39 -35.32 4.1 -45.99 -45.17 -9.86 -23.81 -39.42 -41.89 18.07 -42.71 -18.07 -23 39.42 -45.17 9.86 4.1 45.99 -30.39 35.32 30.39 34.49 -4.1 46.82 45.17 9.86 23.82 39.42 0 -0.01zm41.89 -130.59zm-17.25 58.32l92.81 -92.81 -23 -23.82 -69.81 69.81 -35.32 -34.49 -22.99 22.99 58.31 58.32 0 -0.01z"/>
  </g>
 </g>
</svg>
