<?xml version="1.0" encoding="UTF-8"?>
<!DOCTYPE svg PUBLIC "-//W3C//DTD SVG 1.1//EN" "http://www.w3.org/Graphics/SVG/1.1/DTD/svg11.dtd">
<!-- Creator: CorelDRAW -->
<svg xmlns="http://www.w3.org/2000/svg" xml:space="preserve" width="10.7907mm" height="7.848mm" version="1.1" style="shape-rendering:geometricPrecision; text-rendering:geometricPrecision; image-rendering:optimizeQuality; fill-rule:evenodd; clip-rule:evenodd"
viewBox="0 0 58.5 42.54"
 xmlns:xlink="http://www.w3.org/1999/xlink"
 xmlns:xodm="http://www.corel.com/coreldraw/odm/2003">
 <defs>
  <style type="text/css">
   <![CDATA[
    .fil0 {fill:#0092D1;fill-rule:nonzero}
   ]]>
  </style>
 </defs>
 <g id="Capa_x0020_1">
  <metadata id="CorelCorpID_0Corel-Layer"/>
  <path class="fil0" d="M34.57 15.69l0 -4.52c1.46,-0.62 2.96,-1.09 4.49,-1.4 1.53,-0.31 3.13,-0.47 4.82,-0.47 1.15,0 2.28,0.09 3.39,0.27 1.11,0.18 2.19,0.4 3.26,0.67l0 4.25c-1.06,-0.4 -2.14,-0.7 -3.22,-0.9 -1.09,-0.2 -2.23,-0.3 -3.42,-0.3 -1.68,0 -3.3,0.21 -4.85,0.63 -1.55,0.42 -3.03,1.01 -4.45,1.76zm0 14.62l0 -4.52c1.46,-0.62 2.96,-1.09 4.49,-1.4 1.53,-0.31 3.13,-0.47 4.82,-0.47 1.15,0 2.28,0.09 3.39,0.27 1.11,0.18 2.19,0.4 3.26,0.67l0 4.25c-1.06,-0.4 -2.14,-0.7 -3.22,-0.9 -1.09,-0.2 -2.23,-0.3 -3.42,-0.3 -1.68,0 -3.3,0.2 -4.85,0.6 -1.55,0.4 -3.03,1 -4.45,1.79zm0 -7.31l0 -4.52c1.46,-0.62 2.96,-1.09 4.49,-1.4 1.53,-0.31 3.13,-0.47 4.82,-0.47 1.15,0 2.28,0.09 3.39,0.27 1.11,0.18 2.19,0.4 3.26,0.67l0 4.25c-1.06,-0.4 -2.14,-0.7 -3.22,-0.9 -1.09,-0.2 -2.23,-0.3 -3.42,-0.3 -1.68,0 -3.3,0.21 -4.85,0.63 -1.55,0.42 -3.03,1.01 -4.45,1.76zm-19.94 8.91c2.08,0 4.11,0.23 6.08,0.7 1.97,0.47 3.93,1.16 5.88,2.09l0 -26.19c-1.82,-1.06 -3.74,-1.86 -5.78,-2.39 -2.04,-0.53 -4.1,-0.8 -6.18,-0.8 -1.6,0 -3.18,0.16 -4.75,0.47 -1.57,0.31 -3.09,0.78 -4.55,1.4l0 26.32c1.55,-0.53 3.09,-0.93 4.62,-1.2 1.53,-0.27 3.09,-0.4 4.69,-0.4zm17.28 2.79c1.95,-0.93 3.91,-1.63 5.88,-2.09 1.97,-0.47 4,-0.7 6.08,-0.7 1.6,0 3.16,0.13 4.69,0.4 1.53,0.27 3.07,0.67 4.62,1.2l0 -26.32c-1.46,-0.62 -2.98,-1.09 -4.55,-1.4 -1.57,-0.31 -3.16,-0.47 -4.75,-0.47 -2.08,0 -4.14,0.27 -6.18,0.8 -2.04,0.53 -3.97,1.33 -5.78,2.39l0 26.19zm-2.66 7.84c-2.13,-1.68 -4.43,-2.99 -6.91,-3.92 -2.48,-0.93 -5.05,-1.4 -7.71,-1.4 -1.86,0 -3.69,0.24 -5.48,0.73 -1.79,0.49 -3.51,1.17 -5.15,2.06 -0.93,0.49 -1.83,0.47 -2.69,-0.07 -0.86,-0.53 -1.3,-1.31 -1.3,-2.33l0 -32.04c0,-0.49 0.12,-0.95 0.37,-1.4 0.24,-0.44 0.61,-0.78 1.1,-1 2.04,-1.06 4.17,-1.86 6.38,-2.39 2.22,-0.53 4.48,-0.8 6.78,-0.8 2.57,0 5.08,0.33 7.54,1 2.46,0.66 4.82,1.66 7.08,2.99 2.26,-1.33 4.62,-2.33 7.08,-2.99 2.46,-0.67 4.97,-1 7.54,-1 2.3,0 4.56,0.27 6.78,0.8 2.22,0.53 4.34,1.33 6.38,2.39 0.49,0.22 0.85,0.55 1.1,1 0.24,0.44 0.37,0.91 0.37,1.4l0 32.04c0,1.02 -0.43,1.79 -1.3,2.33 -0.86,0.53 -1.76,0.55 -2.69,0.07 -1.64,-0.89 -3.36,-1.57 -5.15,-2.06 -1.79,-0.49 -3.62,-0.73 -5.48,-0.73 -2.66,0 -5.23,0.47 -7.71,1.4 -2.48,0.93 -4.79,2.24 -6.91,3.92zm-13.29 -22.2z"/>
 </g>
</svg>
