<?xml version="1.0" encoding="UTF-8"?>
<!DOCTYPE svg PUBLIC "-//W3C//DTD SVG 1.1//EN" "http://www.w3.org/Graphics/SVG/1.1/DTD/svg11.dtd">
<!-- Creator: CorelDRAW -->
<svg xmlns="http://www.w3.org/2000/svg" xml:space="preserve" width="11.4867mm" height="11.4869mm" version="1.1" style="shape-rendering:geometricPrecision; text-rendering:geometricPrecision; image-rendering:optimizeQuality; fill-rule:evenodd; clip-rule:evenodd"
viewBox="0 0 27.58 27.58"
 xmlns:xlink="http://www.w3.org/1999/xlink"
 xmlns:xodm="http://www.corel.com/coreldraw/odm/2003">
 <defs>
  <style type="text/css">
   <![CDATA[
    .str0 {stroke:#0092D1;stroke-width:0.96;stroke-miterlimit:10}
    .fil1 {fill:#0092D1}
    .fil0 {fill:#FEFEFE;fill-rule:nonzero}
   ]]>
  </style>
 </defs>
 <g id="Capa_x0020_1">
  <metadata id="CorelCorpID_0Corel-Layer"/>
  <g id="_2169457839120">
   <path class="fil0 str0" d="M0.48 13.79c0,-7.35 5.96,-13.31 13.31,-13.31 7.35,0 13.31,5.96 13.31,13.31 0,7.35 -5.96,13.31 -13.31,13.31 -7.35,0 -13.31,-5.96 -13.31,-13.31z"/>
   <g>
    <g>
     <path class="fil1" d="M13.79 3.48c-4.12,0 -7.47,3.35 -7.47,7.47 0,5.11 6.68,12.61 6.97,12.93 0.27,0.3 0.73,0.3 1,0 0.28,-0.32 6.97,-7.82 6.97,-12.93 0,-4.12 -3.35,-7.47 -7.47,-7.47zm0 11.23c-2.07,0 -3.76,-1.69 -3.76,-3.76 0,-2.07 1.69,-3.76 3.76,-3.76 2.07,0 3.76,1.69 3.76,3.76 0,2.07 -1.69,3.76 -3.76,3.76z"/>
    </g>
   </g>
  </g>
 </g>
</svg>
