<?xml version="1.0" encoding="UTF-8"?>
<!DOCTYPE svg PUBLIC "-//W3C//DTD SVG 1.1//EN" "http://www.w3.org/Graphics/SVG/1.1/DTD/svg11.dtd">
<!-- Creator: CorelDRAW -->
<svg xmlns="http://www.w3.org/2000/svg" xml:space="preserve" width="32.1292mm" height="44.5804mm" version="1.1" style="shape-rendering:geometricPrecision; text-rendering:geometricPrecision; image-rendering:optimizeQuality; fill-rule:evenodd; clip-rule:evenodd"
viewBox="0 0 391.52 543.25"
 xmlns:xlink="http://www.w3.org/1999/xlink"
 xmlns:xodm="http://www.corel.com/coreldraw/odm/2003">
 <defs>
  <style type="text/css">
   <![CDATA[
    .str0 {stroke:#0092D1;stroke-width:12.19;stroke-miterlimit:22.9256}
    .fil3 {fill:none}
    .fil0 {fill:#0092D1}
    .fil1 {fill:#FEFEFE;fill-rule:nonzero}
    .fil2 {fill:#0092D1;fill-rule:nonzero}
   ]]>
  </style>
 </defs>
 <g id="Capa_x0020_1">
  <metadata id="CorelCorpID_0Corel-Layer"/>
  <path class="fil0" d="M77.74 438.58l236.04 0c39.41,0 71.65,-32.24 71.65,-71.65l0 -71.65 -379.33 0 0 71.65c0,39.41 32.24,71.65 71.65,71.65z"/>
  <path class="fil1" d="M132.7 403.62l-50.28 0 0 -9.99 23.73 -25.29c3.25,-3.56 5.66,-6.65 7.22,-9.32 1.57,-2.65 2.34,-5.16 2.34,-7.55 0,-3.25 -0.83,-5.81 -2.46,-7.67 -1.65,-1.87 -4.01,-2.8 -7.05,-2.8 -3.3,0 -5.9,1.13 -7.79,3.4 -1.89,2.25 -2.86,5.23 -2.86,8.92l-14.6 0c0,-4.47 1.07,-8.55 3.2,-12.24 2.13,-3.7 5.14,-6.6 9.04,-8.7 3.89,-2.1 8.31,-3.15 13.24,-3.15 7.57,0 13.43,1.82 17.61,5.45 4.18,3.63 6.28,8.75 6.28,15.36 0,3.63 -0.95,7.32 -2.82,11.09 -1.87,3.77 -5.11,8.15 -9.68,13.15l-16.66 17.57 31.54 0 0 11.76zm58.28 -30.33c0,10.16 -2.1,17.92 -6.29,23.3 -4.2,5.38 -10.35,8.06 -18.43,8.06 -8,0 -14.12,-2.63 -18.35,-7.91 -4.23,-5.28 -6.4,-12.85 -6.5,-22.7l0 -13.5c0,-10.27 2.13,-18.04 6.38,-23.35 4.25,-5.31 10.37,-7.96 18.37,-7.96 7.98,0 14.1,2.63 18.33,7.89 4.23,5.26 6.4,12.81 6.5,22.66l0 13.5zm-14.57 -14.84c0,-6.09 -0.82,-10.52 -2.49,-13.29 -1.65,-2.77 -4.25,-4.16 -7.77,-4.16 -3.44,0 -5.97,1.32 -7.58,3.96 -1.63,2.65 -2.49,6.77 -2.6,12.38l0 17.87c0,5.98 0.81,10.42 2.44,13.33 1.63,2.91 4.25,4.37 7.84,4.37 3.56,0 6.12,-1.39 7.7,-4.18 1.58,-2.8 2.39,-7.07 2.46,-12.81l0 -17.45zm73.75 14.84c0,10.16 -2.1,17.92 -6.29,23.3 -4.2,5.38 -10.35,8.06 -18.43,8.06 -8,0 -14.12,-2.63 -18.35,-7.91 -4.23,-5.28 -6.4,-12.85 -6.5,-22.7l0 -13.5c0,-10.27 2.13,-18.04 6.38,-23.35 4.25,-5.31 10.37,-7.96 18.37,-7.96 7.98,0 14.1,2.63 18.33,7.89 4.23,5.26 6.4,12.81 6.5,22.66l0 13.5zm-14.57 -14.84c0,-6.09 -0.82,-10.52 -2.49,-13.29 -1.65,-2.77 -4.25,-4.16 -7.77,-4.16 -3.44,0 -5.97,1.32 -7.58,3.96 -1.63,2.65 -2.49,6.77 -2.6,12.38l0 17.87c0,5.98 0.81,10.42 2.44,13.33 1.63,2.91 4.25,4.37 7.84,4.37 3.56,0 6.12,-1.39 7.7,-4.18 1.58,-2.8 2.39,-7.07 2.46,-12.81l0 -17.45zm63.88 -28.91l0 11.97 -1.41 0c-6.59,0.1 -11.88,1.82 -15.91,5.16 -4.01,3.34 -6.41,7.96 -7.22,13.89 3.9,-3.97 8.82,-5.95 14.75,-5.95 6.4,0 11.45,2.29 15.22,6.84 3.77,4.57 5.64,10.58 5.64,18.02 0,4.76 -1.03,9.08 -3.1,12.95 -2.06,3.85 -4.99,6.86 -8.77,9.01 -3.77,2.15 -8.05,3.22 -12.81,3.22 -7.72,0 -13.96,-2.68 -18.73,-8.06 -4.75,-5.37 -7.12,-12.54 -7.12,-21.51l0 -5.23c0,-7.96 1.5,-14.99 4.51,-21.08 3.01,-6.1 7.32,-10.82 12.95,-14.17 5.62,-3.34 12.16,-5.02 19.57,-5.06l2.42 0zm-14.2 36.83c-2.36,0 -4.49,0.6 -6.4,1.82 -1.93,1.22 -3.34,2.84 -4.25,4.85l0 4.4c0,4.85 0.96,8.63 2.87,11.35 1.93,2.73 4.61,4.09 8.06,4.09 3.13,0 5.66,-1.22 7.58,-3.68 1.93,-2.46 2.91,-5.64 2.91,-9.56 0,-3.97 -0.98,-7.17 -2.92,-9.61 -1.96,-2.44 -4.57,-3.66 -7.86,-3.66z"/>
  <path class="fil2" d="M207.6 263.93c23.88,-2.96 43.67,-13.37 59.36,-31.23 15.69,-17.86 23.54,-38.83 23.54,-62.91 0,-13.03 -2.57,-25.51 -7.7,-37.45 -5.13,-11.94 -12.43,-22.35 -21.91,-31.23l-16.87 16.87c7.5,6.71 13.17,14.5 17.02,23.39 3.85,8.88 5.77,18.36 5.77,28.42 0,17.37 -5.53,32.71 -16.58,46.04 -11.05,13.32 -25.26,21.46 -42.63,24.42l0 23.69 0 -0zm-23.69 0l0 -23.69c-17.17,-3.15 -31.33,-11.35 -42.48,-24.57 -11.15,-13.22 -16.73,-28.52 -16.73,-45.89 0,-19.74 6.91,-36.51 20.72,-50.33 13.82,-13.82 30.59,-20.72 50.33,-20.72l0.89 0 -13.03 13.02 16.58 16.58 41.45 -41.45 -41.45 -41.45 -16.58 16.58 13.03 13.03 -0.89 0c-26.45,0 -48.85,9.18 -67.2,27.53 -18.36,18.36 -27.54,40.76 -27.54,67.2 0,23.88 7.85,44.75 23.54,62.62 15.69,17.86 35.47,28.37 59.36,31.53z"/>
  <path class="fil2" d="M33.83 525.9l-4.6 0 0 16.7 -9.25 0 0 -45.85 14.77 0c4.63,0 8.22,1.2 10.75,3.61 2.52,2.41 3.79,5.84 3.79,10.26 0,6.1 -2.21,10.37 -6.64,12.81l8.03 18.72 0 0.44 -9.95 0 -6.89 -16.7zm-4.6 -7.74l5.26 0c1.85,0 3.23,-0.61 4.16,-1.84 0.92,-1.24 1.39,-2.88 1.39,-4.93 0,-4.6 -1.79,-6.9 -5.38,-6.9l-5.42 0 0 13.67zm50.08 4.64l-14.42 0 0 12.12 17.07 0 0 7.67 -26.32 0 0 -45.85 26.26 0 0 7.74 -17 0 0 10.83 14.42 0 0 7.48zm17.63 19.8l-9.25 0 0 -45.85 9.25 0 0 45.85zm39.82 0l-9.25 0 -13.54 -30.07 0 30.07 -9.25 0 0 -45.85 9.25 0 13.57 30.1 0 -30.1 9.22 0 0 45.85zm26.8 -12.03c0,-1.87 -0.47,-3.29 -1.43,-4.23 -0.96,-0.96 -2.69,-1.96 -5.21,-2.98 -4.6,-1.74 -7.9,-3.78 -9.92,-6.13 -2.01,-2.34 -3.02,-5.12 -3.02,-8.31 0,-3.86 1.38,-6.97 4.11,-9.31 2.74,-2.34 6.22,-3.51 10.45,-3.51 2.81,0 5.32,0.59 7.52,1.78 2.2,1.19 3.9,2.87 5.08,5.03 1.18,2.17 1.77,4.62 1.77,7.37l-9.22 0c0,-2.14 -0.45,-3.77 -1.36,-4.89 -0.91,-1.13 -2.24,-1.69 -3.96,-1.69 -1.61,0 -2.88,0.47 -3.78,1.43 -0.9,0.96 -1.36,2.25 -1.36,3.86 0,1.26 0.51,2.4 1.52,3.42 1.01,1.01 2.79,2.07 5.35,3.16 4.47,1.61 7.72,3.6 9.75,5.95 2.02,2.35 3.04,5.34 3.04,8.98 0,3.99 -1.28,7.1 -3.82,9.35 -2.54,2.25 -6,3.37 -10.36,3.37 -2.96,0 -5.65,-0.61 -8.09,-1.83 -2.43,-1.23 -4.34,-2.97 -5.71,-5.24 -1.38,-2.27 -2.06,-4.94 -2.06,-8.03l9.29 0c0,2.64 0.52,4.57 1.54,5.76 1.03,1.19 2.71,1.79 5.04,1.79 3.24,0 4.85,-1.71 4.85,-5.13zm39.14 -7.77l-14.42 0 0 12.12 17.07 0 0 7.67 -26.32 0 0 -45.85 26.26 0 0 7.74 -17 0 0 10.83 14.42 0 0 7.48zm21.86 3.1l-4.6 0 0 16.7 -9.25 0 0 -45.85 14.77 0c4.63,0 8.22,1.2 10.75,3.61 2.52,2.41 3.79,5.84 3.79,10.26 0,6.1 -2.21,10.37 -6.64,12.81l8.03 18.72 0 0.44 -9.95 0 -6.89 -16.7zm-4.6 -7.74l5.26 0c1.85,0 3.23,-0.61 4.16,-1.84 0.92,-1.24 1.39,-2.88 1.39,-4.93 0,-4.6 -1.79,-6.9 -5.38,-6.9l-5.42 0 0 13.67zm57.46 9.19c-0.23,5.23 -1.7,9.19 -4.41,11.87 -2.71,2.69 -6.52,4.03 -11.46,4.03 -5.19,0 -9.16,-1.71 -11.92,-5.12 -2.76,-3.42 -4.14,-8.29 -4.14,-14.61l0 -7.73c0,-6.3 1.43,-11.15 4.28,-14.57 2.86,-3.41 6.82,-5.12 11.91,-5.12 4.99,0 8.79,1.4 11.38,4.18 2.59,2.79 4.06,6.8 4.42,12.03l-9.29 0c-0.09,-3.24 -0.58,-5.46 -1.49,-6.7 -0.91,-1.22 -2.59,-1.84 -5.02,-1.84 -2.48,0 -4.23,0.87 -5.27,2.6 -1.02,1.74 -1.57,4.59 -1.63,8.57l0 8.67c0,4.56 0.5,7.7 1.53,9.39 1.02,1.71 2.76,2.56 5.24,2.56 2.43,0 4.12,-0.59 5.04,-1.78 0.92,-1.18 1.44,-3.33 1.57,-6.44l9.25 0zm15.38 15.25l-9.25 0 0 -45.85 9.25 0 0 45.85zm40.07 -18.8c0,6.16 -1.45,10.93 -4.36,14.34 -2.9,3.41 -6.94,5.1 -12.1,5.1 -5.15,0 -9.19,-1.69 -12.12,-5.06 -2.93,-3.36 -4.43,-8.09 -4.47,-14.15l0 -7.85c0,-6.31 1.46,-11.23 4.37,-14.77 2.92,-3.54 6.97,-5.31 12.15,-5.31 5.11,0 9.12,1.74 12.06,5.21 2.94,3.48 4.43,8.36 4.47,14.64l0 7.85zm-9.29 -7.71c0,-4.14 -0.59,-7.21 -1.76,-9.23 -1.17,-2.01 -3,-3.02 -5.48,-3.02 -2.45,0 -4.27,0.97 -5.45,2.91 -1.17,1.94 -1.78,4.9 -1.83,8.87l0 8.16c0,4.02 0.6,6.98 1.79,8.88 1.2,1.9 3.05,2.85 5.54,2.85 2.42,0 4.21,-0.92 5.38,-2.78 1.17,-1.86 1.77,-4.75 1.79,-8.65l0 -7.97zm-5.41 -31.6l10.02 0 -8.76 9.74 -7.43 0 6.17 -9.74zm53.36 58.1l-9.25 0 -13.54 -30.07 0 30.07 -9.25 0 0 -45.85 9.25 0 13.57 30.1 0 -30.1 9.22 0 0 45.85z"/>
  <path class="fil3 str0" d="M385.43 207.95l0 -130.21c0,-39.41 -32.24,-71.65 -71.65,-71.65l-236.04 0c-39.41,0 -71.65,32.24 -71.65,71.65l0 125.23"/>
 </g>
</svg>
