<?xml version="1.0" encoding="UTF-8"?>
<!DOCTYPE svg PUBLIC "-//W3C//DTD SVG 1.1//EN" "http://www.w3.org/Graphics/SVG/1.1/DTD/svg11.dtd">
<!-- Creator: CorelDRAW -->
<svg xmlns="http://www.w3.org/2000/svg" xml:space="preserve" width="32.1292mm" height="44.3388mm" version="1.1" style="shape-rendering:geometricPrecision; text-rendering:geometricPrecision; image-rendering:optimizeQuality; fill-rule:evenodd; clip-rule:evenodd"
viewBox="0 0 262.4 362.12"
 xmlns:xlink="http://www.w3.org/1999/xlink"
 xmlns:xodm="http://www.corel.com/coreldraw/odm/2003">
 <defs>
  <style type="text/css">
   <![CDATA[
    .str0 {stroke:#0092D1;stroke-width:8.17;stroke-miterlimit:22.9256}
    .fil3 {fill:none}
    .fil0 {fill:#0092D1}
    .fil2 {fill:#FEFEFE;fill-rule:nonzero}
    .fil1 {fill:#0092D1;fill-rule:nonzero}
   ]]>
  </style>
 </defs>
 <g id="Capa_x0020_1">
  <metadata id="CorelCorpID_0Corel-Layer"/>
  <g>
   <path class="fil0" d="M52.1 293.95l158.2 0c26.41,0 48.02,-21.61 48.02,-48.02l0 -48.02 -254.24 0 0 48.02c0,26.41 21.61,48.02 48.02,48.02z"/>
   <path id="_1" class="fil1" d="M210.3 295.99l-158.2 0 0 -4.08 158.2 0 0 0 0 4.08zm46 -50.06l4.04 0 0 0 -0.07 2.57 -0.19 2.54 -0.32 2.5 -0.44 2.46 -0.56 2.42 -0.68 2.37 -0.79 2.32 -0.9 2.27 -1.01 2.22 -1.11 2.16 -1.21 2.1 -1.31 2.03 -1.4 1.96 -1.49 1.89 -1.58 1.82 -1.66 1.74 -1.74 1.66 -1.82 1.58 -1.89 1.49 -1.96 1.4 -2.03 1.3 -2.09 1.21 -2.16 1.11 -2.21 1.01 -2.27 0.9 -2.32 0.79 -2.37 0.68 -2.42 0.56 -2.46 0.44 -2.5 0.32 -2.53 0.19 -2.56 0.07 0 -4.08 2.36 -0.06 2.33 -0.18 2.3 -0.29 2.26 -0.41 2.22 -0.52 2.18 -0.62 2.13 -0.73 2.09 -0.83 2.04 -0.92 1.98 -1.02 1.93 -1.11 1.87 -1.2 1.81 -1.29 1.74 -1.37 1.67 -1.45 1.6 -1.53 1.53 -1.6 1.45 -1.67 1.37 -1.74 1.29 -1.8 1.2 -1.87 1.11 -1.92 1.02 -1.98 0.92 -2.03 0.82 -2.08 0.73 -2.13 0.62 -2.18 0.52 -2.22 0.41 -2.26 0.29 -2.29 0.18 -2.32 0.06 -2.36 0 0zm4.04 -48.02l0 48.02 -4.04 0 0 -48.02 2.02 -2.04 2.02 2.04zm-2.02 -2.04l2.02 0 0 2.04 -2.02 -2.04zm-254.24 0l254.24 0 0 4.08 -254.24 0 -2.02 -2.04 2.02 -2.04zm-2.02 2.04l0 -2.04 2.02 0 -2.02 2.04zm0 48.02l0 -48.02 4.04 0 0 48.02 0 0 -4.04 0zm50.04 45.98l0 4.08 0 0 -2.56 -0.07 -2.53 -0.19 -2.5 -0.32 -2.46 -0.44 -2.42 -0.56 -2.37 -0.68 -2.32 -0.79 -2.27 -0.9 -2.21 -1.01 -2.16 -1.11 -2.09 -1.21 -2.03 -1.3 -1.96 -1.4 -1.89 -1.49 -1.82 -1.58 -1.74 -1.66 -1.66 -1.74 -1.58 -1.82 -1.49 -1.89 -1.4 -1.96 -1.31 -2.03 -1.21 -2.1 -1.11 -2.16 -1.01 -2.22 -0.9 -2.27 -0.79 -2.32 -0.68 -2.37 -0.56 -2.42 -0.44 -2.46 -0.32 -2.5 -0.19 -2.54 -0.07 -2.57 4.04 0 0.06 2.36 0.18 2.32 0.29 2.29 0.41 2.26 0.52 2.22 0.62 2.18 0.73 2.13 0.82 2.08 0.92 2.03 1.02 1.98 1.11 1.92 1.2 1.87 1.29 1.8 1.37 1.74 1.45 1.67 1.53 1.6 1.6 1.53 1.67 1.45 1.74 1.37 1.81 1.29 1.87 1.2 1.93 1.11 1.98 1.02 2.04 0.92 2.09 0.83 2.13 0.73 2.18 0.62 2.22 0.52 2.26 0.41 2.3 0.29 2.33 0.18 2.36 0.06 0 0z"/>
  </g>
  <path class="fil2" d="M94.04 270.51l-33.7 0 0 -6.7 15.9 -16.95c2.18,-2.39 3.79,-4.46 4.84,-6.25 1.05,-1.77 1.57,-3.46 1.57,-5.06 0,-2.18 -0.55,-3.9 -1.65,-5.14 -1.11,-1.26 -2.69,-1.88 -4.73,-1.88 -2.21,0 -3.95,0.76 -5.22,2.28 -1.27,1.51 -1.91,3.5 -1.91,5.98l-9.78 0c0,-3 0.71,-5.73 2.14,-8.21 1.43,-2.48 3.45,-4.43 6.06,-5.83 2.6,-1.41 5.57,-2.11 8.87,-2.11 5.07,0 9,1.22 11.8,3.65 2.8,2.43 4.21,5.87 4.21,10.29 0,2.43 -0.63,4.91 -1.89,7.43 -1.26,2.52 -3.42,5.46 -6.49,8.82l-11.17 11.78 21.14 0 0 7.88zm39.06 -20.33c0,6.81 -1.41,12.01 -4.22,15.62 -2.81,3.61 -6.94,5.4 -12.35,5.4 -5.36,0 -9.46,-1.76 -12.3,-5.3 -2.83,-3.54 -4.29,-8.61 -4.36,-15.21l0 -9.05c0,-6.88 1.43,-12.09 4.28,-15.65 2.85,-3.56 6.95,-5.34 12.31,-5.34 5.35,0 9.45,1.76 12.28,5.29 2.84,3.53 4.29,8.59 4.36,15.19l0 9.05zm-9.76 -9.95c0,-4.08 -0.55,-7.05 -1.67,-8.91 -1.11,-1.86 -2.85,-2.79 -5.21,-2.79 -2.3,0 -4,0.89 -5.08,2.65 -1.1,1.77 -1.67,4.54 -1.74,8.3l0 11.97c0,4.01 0.54,6.98 1.64,8.93 1.1,1.95 2.85,2.93 5.26,2.93 2.39,0 4.1,-0.93 5.16,-2.8 1.06,-1.88 1.6,-4.74 1.65,-8.59l0 -11.7zm49.43 9.95c0,6.81 -1.41,12.01 -4.22,15.62 -2.81,3.61 -6.94,5.4 -12.35,5.4 -5.36,0 -9.46,-1.76 -12.3,-5.3 -2.83,-3.54 -4.29,-8.61 -4.36,-15.21l0 -9.05c0,-6.88 1.43,-12.09 4.28,-15.65 2.85,-3.56 6.95,-5.34 12.31,-5.34 5.35,0 9.45,1.76 12.28,5.29 2.84,3.53 4.29,8.59 4.36,15.19l0 9.05zm-9.76 -9.95c0,-4.08 -0.55,-7.05 -1.67,-8.91 -1.11,-1.86 -2.85,-2.79 -5.21,-2.79 -2.3,0 -4,0.89 -5.08,2.65 -1.1,1.77 -1.67,4.54 -1.74,8.3l0 11.97c0,4.01 0.54,6.98 1.64,8.93 1.1,1.95 2.85,2.93 5.26,2.93 2.39,0 4.1,-0.93 5.16,-2.8 1.06,-1.88 1.6,-4.74 1.65,-8.59l0 -11.7zm40.04 30.28l-9.76 0 0 -37.69 -11.65 3.6 0 -7.88 20.36 -7.26 1.05 0 0 49.23z"/>
  <polygon class="fil1" points="90.32,154.77 80.1,144.55 120.98,103.67 80.1,62.8 90.32,52.58 131.2,93.45 172.08,52.58 182.3,62.8 141.42,103.67 182.3,144.55 172.08,154.77 131.2,113.89 "/>
  <path class="fil1" d="M108.89 351.47c-0.15,3.51 -1.14,6.16 -2.95,7.95 -1.81,1.8 -4.37,2.7 -7.68,2.7 -3.48,0 -6.14,-1.15 -7.99,-3.43 -1.85,-2.29 -2.77,-5.55 -2.77,-9.79l0 -5.18c0,-4.22 0.96,-7.48 2.87,-9.77 1.92,-2.28 4.57,-3.43 7.98,-3.43 3.34,0 5.89,0.94 7.63,2.8 1.74,1.87 2.72,4.56 2.96,8.06l-6.22 0c-0.06,-2.17 -0.39,-3.66 -1,-4.49 -0.61,-0.82 -1.74,-1.23 -3.36,-1.23 -1.66,0 -2.84,0.58 -3.53,1.74 -0.68,1.17 -1.05,3.08 -1.09,5.74l0 5.81c0,3.05 0.34,5.16 1.02,6.3 0.68,1.15 1.85,1.71 3.52,1.71 1.63,0 2.76,-0.4 3.38,-1.2 0.62,-0.79 0.97,-2.23 1.05,-4.31l6.2 0zm19.7 -3.05l-9.67 0 0 8.13 11.44 0 0 5.14 -17.64 0 0 -30.73 17.6 0 0 5.19 -11.39 0 0 7.26 9.67 0 0 5.01zm18.31 5.21c0,-1.25 -0.32,-2.2 -0.96,-2.84 -0.64,-0.64 -1.8,-1.31 -3.49,-2 -3.08,-1.17 -5.29,-2.54 -6.65,-4.11 -1.35,-1.57 -2.02,-3.43 -2.02,-5.57 0,-2.59 0.92,-4.67 2.75,-6.24 1.84,-1.57 4.17,-2.36 7,-2.36 1.88,0 3.57,0.4 5.04,1.2 1.48,0.8 2.62,1.92 3.41,3.37 0.79,1.46 1.19,3.1 1.19,4.94l-6.18 0c0,-1.43 -0.3,-2.53 -0.91,-3.28 -0.61,-0.76 -1.5,-1.13 -2.65,-1.13 -1.08,0 -1.93,0.32 -2.54,0.96 -0.61,0.64 -0.91,1.51 -0.91,2.59 0,0.84 0.34,1.61 1.02,2.29 0.68,0.68 1.87,1.39 3.59,2.12 3,1.08 5.17,2.41 6.53,3.99 1.35,1.58 2.04,3.58 2.04,6.02 0,2.67 -0.86,4.76 -2.56,6.27 -1.7,1.51 -4.02,2.26 -6.94,2.26 -1.98,0 -3.79,-0.41 -5.42,-1.22 -1.63,-0.82 -2.91,-1.99 -3.82,-3.52 -0.92,-1.52 -1.38,-3.31 -1.38,-5.38l6.22 0c0,1.77 0.35,3.06 1.03,3.86 0.69,0.8 1.82,1.2 3.38,1.2 2.17,0 3.25,-1.15 3.25,-3.44zm26.23 -5.21l-9.67 0 0 8.13 11.44 0 0 5.14 -17.64 0 0 -30.73 17.6 0 0 5.19 -11.39 0 0 7.26 9.67 0 0 5.01z"/>
  <path class="fil3 str0" d="M258.32 139.37l0 -87.27c0,-26.41 -21.61,-48.02 -48.02,-48.02l-158.2 0c-26.41,0 -48.02,21.61 -48.02,48.02l0 83.93"/>
 </g>
</svg>
