<?xml version="1.0" encoding="UTF-8"?>
<!DOCTYPE svg PUBLIC "-//W3C//DTD SVG 1.1//EN" "http://www.w3.org/Graphics/SVG/1.1/DTD/svg11.dtd">
<!-- Creator: CorelDRAW -->
<svg xmlns="http://www.w3.org/2000/svg" xml:space="preserve" width="35.6447mm" height="44.5804mm" version="1.1" style="shape-rendering:geometricPrecision; text-rendering:geometricPrecision; image-rendering:optimizeQuality; fill-rule:evenodd; clip-rule:evenodd"
viewBox="0 0 504.65 631.16"
 xmlns:xlink="http://www.w3.org/1999/xlink"
 xmlns:xodm="http://www.corel.com/coreldraw/odm/2003">
 <defs>
  <style type="text/css">
   <![CDATA[
    .str1 {stroke:#0092D1;stroke-width:14.16;stroke-miterlimit:22.9256}
    .str0 {stroke:#0092D1;stroke-width:2.83;stroke-miterlimit:22.9256}
    .fil4 {fill:none}
    .fil0 {fill:#0092D1}
    .fil1 {fill:#FEFEFE;fill-rule:nonzero}
    .fil2 {fill:#0092D1;fill-rule:nonzero}
    .fil3 {fill:#0092D1;fill-rule:nonzero}
   ]]>
  </style>
 </defs>
 <g id="Capa_x0020_1">
  <metadata id="CorelCorpID_0Corel-Layer"/>
  <path class="fil0" d="M115.2 509.56l274.24 0c45.78,0 83.24,-37.46 83.24,-83.24l0 -83.24 -440.72 0 0 83.24c0,45.78 37.46,83.24 83.24,83.24z"/>
  <path class="fil1" d="M179.88 468.93l-58.42 0 0 -11.61 27.57 -29.39c3.78,-4.14 6.57,-7.73 8.39,-10.83 1.82,-3.08 2.72,-5.99 2.72,-8.77 0,-3.78 -0.96,-6.75 -2.86,-8.91 -1.92,-2.18 -4.66,-3.26 -8.19,-3.26 -3.84,0 -6.85,1.32 -9.05,3.96 -2.2,2.62 -3.32,6.07 -3.32,10.37l-16.96 0c0,-5.19 1.24,-9.93 3.72,-14.22 2.48,-4.3 5.97,-7.67 10.51,-10.11 4.51,-2.44 9.65,-3.66 15.38,-3.66 8.79,0 15.6,2.12 20.46,6.33 4.85,4.22 7.29,10.17 7.29,17.84 0,4.21 -1.1,8.51 -3.28,12.88 -2.18,4.38 -5.93,9.47 -11.25,15.28l-19.36 20.42 36.64 0 0 13.67zm67.71 -35.24c0,11.81 -2.44,20.82 -7.31,27.07 -4.87,6.25 -12.03,9.37 -21.42,9.37 -9.29,0 -16.4,-3.06 -21.32,-9.19 -4.91,-6.13 -7.43,-14.93 -7.55,-26.37l0 -15.68c0,-11.93 2.48,-20.96 7.41,-27.13 4.94,-6.17 12.05,-9.25 21.34,-9.25 9.27,0 16.38,3.06 21.3,9.17 4.92,6.11 7.43,14.88 7.55,26.33l0 15.68zm-16.92 -17.24c0,-7.07 -0.96,-12.23 -2.9,-15.44 -1.92,-3.22 -4.93,-4.83 -9.03,-4.83 -4,0 -6.93,1.54 -8.81,4.6 -1.9,3.08 -2.9,7.87 -3.02,14.38l0 20.76c0,6.95 0.94,12.11 2.84,15.48 1.9,3.38 4.93,5.08 9.11,5.08 4.14,0 7.11,-1.62 8.95,-4.85 1.84,-3.26 2.78,-8.21 2.86,-14.88l0 -20.28zm86.75 52.48l-58.42 0 0 -11.61 27.57 -29.39c3.78,-4.14 6.57,-7.73 8.39,-10.83 1.82,-3.08 2.72,-5.99 2.72,-8.77 0,-3.78 -0.96,-6.75 -2.86,-8.91 -1.92,-2.18 -4.66,-3.26 -8.19,-3.26 -3.84,0 -6.85,1.32 -9.05,3.96 -2.2,2.62 -3.32,6.07 -3.32,10.37l-16.96 0c0,-5.19 1.24,-9.93 3.72,-14.22 2.48,-4.3 5.97,-7.67 10.51,-10.11 4.51,-2.44 9.65,-3.66 15.38,-3.66 8.79,0 15.6,2.12 20.46,6.33 4.85,4.22 7.29,10.17 7.29,17.84 0,4.21 -1.1,8.51 -3.28,12.88 -2.18,4.38 -5.93,9.47 -11.25,15.28l-19.36 20.42 36.64 0 0 13.67zm27.55 -50.11l9.01 0c4.3,0 7.47,-1.08 9.55,-3.22 2.06,-2.16 3.1,-4.99 3.1,-8.55 0,-3.44 -1.02,-6.11 -3.08,-8.01 -2.04,-1.92 -4.85,-2.88 -8.45,-2.88 -3.24,0 -5.95,0.88 -8.13,2.66 -2.2,1.78 -3.28,4.08 -3.28,6.93l-16.92 0c0,-4.45 1.2,-8.45 3.6,-11.99 2.4,-3.54 5.75,-6.29 10.07,-8.27 4.32,-2 9.07,-3 14.24,-3 9.03,0 16.08,2.16 21.2,6.47 5.11,4.32 7.67,10.25 7.67,17.82 0,3.9 -1.2,7.49 -3.58,10.77 -2.38,3.28 -5.49,5.79 -9.37,7.55 4.81,1.72 8.39,4.3 10.75,7.75 2.36,3.44 3.54,7.49 3.54,12.19 0,7.57 -2.76,13.65 -8.27,18.22 -5.53,4.57 -12.83,6.85 -21.94,6.85 -8.49,0 -15.44,-2.24 -20.86,-6.73 -5.39,-4.5 -8.11,-10.43 -8.11,-17.8l16.92 0c0,3.2 1.2,5.79 3.6,7.83 2.4,2.02 5.35,3.04 8.87,3.04 4.02,0 7.17,-1.06 9.45,-3.2 2.28,-2.14 3.44,-4.96 3.44,-8.47 0,-8.53 -4.69,-12.79 -14.06,-12.79l-8.95 0 0 -13.19z"/>
  <path class="fil2 str0" d="M252.34 291.89c-14.62,-4.97 -27.66,-12.92 -39.18,-23.93 -11.49,-11.01 -21.28,-24.59 -29.35,-40.79 -8.06,-16.16 -14.21,-34.53 -18.45,-55.11 -4.23,-20.54 -6.37,-42.85 -6.37,-66.86l0 -7.55c21.95,-1.51 40.95,-4.9 56.97,-10.16 16.06,-5.23 28.17,-11.89 36.38,-19.95 8.17,8.06 20.29,14.73 36.35,19.95 16.02,5.26 35.02,8.65 56.97,10.16l0 7.55c0,24 -2.13,46.31 -6.37,66.86 -4.23,20.58 -10.38,38.95 -18.45,55.11 -8.06,16.2 -17.82,29.78 -29.35,40.79 -11.49,11.01 -24.56,18.96 -39.14,23.93zm0 -9.06c13.15,-4.97 24.97,-12.74 35.43,-23.34 10.46,-10.6 19.33,-23.56 26.66,-38.88 7.29,-15.31 12.89,-32.69 16.76,-52.06 3.9,-19.36 5.82,-40.35 5.82,-62.92 -17.53,-1.47 -33.73,-4.49 -48.54,-9.09 -14.8,-4.6 -26.85,-10.45 -36.12,-17.56 -9.28,7.11 -21.32,12.96 -36.09,17.56 -14.8,4.6 -31.01,7.62 -48.61,9.09 0,22.57 1.91,43.55 5.78,62.92 3.83,19.36 9.43,36.74 16.75,52.06 7.33,15.32 16.24,28.27 26.7,38.88 10.46,10.6 22.28,18.37 35.46,23.34zm0 -20.91c-10.61,-4.38 -19.96,-11.08 -28.17,-20.06 -8.21,-8.98 -15.13,-19.77 -20.8,-32.32 -5.71,-12.56 -10.02,-26.32 -13.04,-41.34 -2.98,-15.02 -4.53,-30.78 -4.68,-47.23 14.66,-1.58 27.43,-4.09 38.3,-7.51 10.86,-3.42 20.33,-8.17 28.39,-14.28 8.1,6.11 17.6,10.86 28.43,14.28 10.83,3.42 23.57,5.93 38.22,7.51 -0.08,16.46 -1.58,32.21 -4.57,47.23 -2.98,15.02 -7.33,28.79 -13,41.34 -5.71,12.55 -12.67,23.34 -20.88,32.32 -8.25,8.98 -17.64,15.68 -28.21,20.06zm0 -8.32l0 -145.05c-7.51,4.93 -16.02,8.95 -25.63,11.97 -9.61,3.02 -20.7,5.37 -33.29,7.1 0.59,20.29 3.35,38.95 8.32,55.99 4.93,17.05 11.75,31.59 20.36,43.66 8.65,12.08 18.71,20.87 30.23,26.32z"/>
  <path class="fil3" d="M37.08 612.69c-0.26,6.08 -1.97,10.68 -5.12,13.79 -3.15,3.12 -7.58,4.68 -13.31,4.68 -6.03,0 -10.64,-1.98 -13.85,-5.94 -3.21,-3.97 -4.81,-9.63 -4.81,-16.97l0 -8.98c0,-7.32 1.66,-12.96 4.97,-16.93 3.32,-3.96 7.93,-5.94 13.83,-5.94 5.79,0 10.21,1.62 13.22,4.86 3.01,3.25 4.72,7.9 5.13,13.97l-10.79 0c-0.1,-3.76 -0.67,-6.34 -1.74,-7.78 -1.06,-1.42 -3.01,-2.13 -5.83,-2.13 -2.89,0 -4.92,1.01 -6.12,3.02 -1.19,2.02 -1.82,5.33 -1.9,9.95l0 10.08c0,5.29 0.59,8.94 1.77,10.91 1.19,1.98 3.21,2.97 6.09,2.97 2.82,0 4.78,-0.69 5.86,-2.07 1.07,-1.37 1.67,-3.87 1.82,-7.48l10.75 0zm34.15 -5.28l-16.76 0 0 14.09 19.83 0 0 8.92 -30.58 0 0 -53.27 30.5 0 0 8.99 -19.75 0 0 12.59 16.76 0 0 8.69zm25.4 3.6l-5.34 0 0 19.4 -10.75 0 0 -53.27 17.16 0c5.38,0 9.55,1.4 12.49,4.19 2.93,2.8 4.41,6.78 4.41,11.93 0,7.09 -2.57,12.05 -7.72,14.88l9.33 21.75 0 0.51 -11.56 0 -8 -19.4zm-5.34 -8.99l6.11 0c2.15,0 3.76,-0.71 4.83,-2.13 1.07,-1.44 1.61,-3.35 1.61,-5.73 0,-5.34 -2.09,-8.02 -6.26,-8.02l-6.29 0 0 15.88zm63.34 -15.88l-13.16 0 0 44.28 -10.79 0 0 -44.28 -12.96 0 0 -8.99 36.91 0 0 8.99zm17.42 44.28l-10.75 0 0 -53.27 10.75 0 0 53.27zm36.51 -21.73l-16.72 0 0 21.73 -10.75 0 0 -53.27 29.48 0 0 8.99 -18.73 0 0 13.64 16.72 0 0 8.92zm-1.54 16.42c0,-1.65 0.56,-3.02 1.66,-4.1 1.11,-1.07 2.56,-1.61 4.35,-1.61 1.72,0 3.16,0.54 4.31,1.6 1.15,1.06 1.72,2.44 1.72,4.11 0,1.71 -0.57,3.08 -1.74,4.12 -1.16,1.04 -2.6,1.56 -4.29,1.56 -1.74,0 -3.17,-0.53 -4.31,-1.57 -1.12,-1.05 -1.7,-2.42 -1.7,-4.11zm49.97 5.31l-10.75 0 0 -53.27 10.75 0 0 53.27zm31.53 -13.97c0,-2.17 -0.55,-3.82 -1.66,-4.92 -1.11,-1.11 -3.12,-2.27 -6.06,-3.46 -5.34,-2.02 -9.18,-4.39 -11.53,-7.12 -2.33,-2.72 -3.51,-5.94 -3.51,-9.65 0,-4.48 1.6,-8.09 4.77,-10.81 3.18,-2.72 7.23,-4.08 12.14,-4.08 3.26,0 6.18,0.69 8.74,2.07 2.56,1.39 4.53,3.33 5.91,5.84 1.37,2.52 2.06,5.37 2.06,8.57l-10.71 0c0,-2.48 -0.53,-4.38 -1.59,-5.68 -1.06,-1.31 -2.6,-1.96 -4.6,-1.96 -1.87,0 -3.35,0.55 -4.39,1.66 -1.05,1.11 -1.57,2.61 -1.57,4.48 0,1.46 0.59,2.78 1.76,3.97 1.17,1.17 3.25,2.41 6.22,3.67 5.19,1.87 8.97,4.18 11.32,6.92 2.35,2.73 3.53,6.21 3.53,10.44 0,4.63 -1.49,8.25 -4.43,10.86 -2.95,2.61 -6.97,3.92 -12.04,3.92 -3.43,0 -6.57,-0.71 -9.4,-2.12 -2.82,-1.42 -5.04,-3.45 -6.63,-6.09 -1.6,-2.63 -2.4,-5.74 -2.4,-9.33l10.79 0c0,3.07 0.6,5.31 1.79,6.69 1.2,1.39 3.15,2.09 5.86,2.09 3.76,0 5.63,-1.98 5.63,-5.96zm55.48 -7.87c0,7.15 -1.69,12.7 -5.07,16.66 -3.37,3.96 -8.07,5.93 -14.06,5.93 -5.98,0 -10.67,-1.96 -14.08,-5.88 -3.41,-3.91 -5.14,-9.4 -5.19,-16.44l0 -9.11c0,-7.33 1.7,-13.05 5.08,-17.16 3.4,-4.11 8.1,-6.17 14.12,-6.17 5.93,0 10.6,2.02 14.01,6.06 3.42,4.05 5.14,9.72 5.19,17.01l0 9.12zm-10.79 -8.95c0,-4.81 -0.69,-8.38 -2.05,-10.73 -1.36,-2.33 -3.48,-3.51 -6.37,-3.51 -2.85,0 -4.96,1.12 -6.33,3.38 -1.36,2.26 -2.07,5.69 -2.12,10.3l0 9.48c0,4.67 0.7,8.1 2.09,10.31 1.4,2.21 3.55,3.31 6.44,3.31 2.81,0 4.9,-1.07 6.26,-3.23 1.36,-2.16 2.06,-5.52 2.09,-10.05l0 -9.26zm55.04 10.11c-2.2,2.25 -4.59,3.37 -7.2,3.37 -4.05,0 -7.24,-1.62 -9.56,-4.88 -2.33,-3.25 -3.5,-7.59 -3.5,-13.01 0,-3.51 0.66,-6.72 1.97,-9.63 1.32,-2.91 3.16,-5.17 5.51,-6.78 2.36,-1.61 4.98,-2.41 7.89,-2.41 3,0 5.67,0.89 8,2.67 2.35,1.77 4.16,4.33 5.46,7.67 1.29,3.32 1.94,7.11 1.94,11.35l0 3.77c0,9.08 -2,16.16 -5.98,21.28 -3.98,5.11 -9.64,7.7 -16.96,7.8l-1.06 0 0 -8.92 0.7 0c4.05,-0.02 7.09,-1.09 9.13,-3.17 2.04,-2.09 3.26,-5.12 3.67,-9.11zm-4.57 -4.72c2,0 3.57,-1.37 4.72,-4.11l0 -4.76c0,-3.5 -0.47,-6.23 -1.42,-8.23 -0.96,-1.98 -2.19,-2.98 -3.7,-2.98 -1.49,0 -2.7,0.99 -3.61,2.95 -0.91,1.97 -1.37,4.37 -1.37,7.2 0,3.07 0.47,5.49 1.44,7.27 0.95,1.77 2.26,2.66 3.95,2.66zm53.33 3.37c0,7.38 -1.34,13.01 -4.01,16.92 -2.66,3.91 -6.48,5.86 -11.43,5.86 -4.91,0 -8.69,-1.9 -11.36,-5.69 -2.67,-3.8 -4.05,-9.23 -4.15,-16.31l0 -10.06c0,-7.35 1.32,-12.97 3.98,-16.86 2.66,-3.89 6.48,-5.84 11.45,-5.84 4.97,0 8.79,1.92 11.45,5.78 2.66,3.86 4.01,9.37 4.06,16.51l0 9.7zm-10.39 -10.81c0,-4.21 -0.41,-7.37 -1.24,-9.48 -0.84,-2.11 -2.12,-3.16 -3.88,-3.16 -3.3,0 -4.99,3.86 -5.12,11.58l0 13.32c0,4.31 0.42,7.52 1.26,9.63 0.84,2.11 2.15,3.16 3.93,3.16 1.69,0 2.93,-0.99 3.75,-2.96 0.82,-1.97 1.25,-4.98 1.3,-9.05l0 -13.04zm48.28 10.81c0,7.38 -1.34,13.01 -4.01,16.92 -2.66,3.91 -6.48,5.86 -11.43,5.86 -4.91,0 -8.69,-1.9 -11.36,-5.69 -2.67,-3.8 -4.05,-9.23 -4.15,-16.31l0 -10.06c0,-7.35 1.32,-12.97 3.98,-16.86 2.66,-3.89 6.48,-5.84 11.45,-5.84 4.97,0 8.79,1.92 11.45,5.78 2.66,3.86 4.01,9.37 4.06,16.51l0 9.7zm-10.39 -10.81c0,-4.21 -0.41,-7.37 -1.24,-9.48 -0.84,-2.11 -2.12,-3.16 -3.88,-3.16 -3.3,0 -4.99,3.86 -5.12,11.58l0 13.32c0,4.31 0.42,7.52 1.26,9.63 0.84,2.11 2.15,3.16 3.93,3.16 1.69,0 2.93,-0.99 3.75,-2.96 0.82,-1.97 1.25,-4.98 1.3,-9.05l0 -13.04zm40.13 32.84l-10.39 0 0 -40.69 -10.14 3.91 0 -8.62 19.43 -7.94 1.1 0 0 53.34z"/>
  <path class="fil4 str1" d="M472.68 241.6l0 -151.29c0,-45.78 -37.46,-83.24 -83.24,-83.24l-274.24 0c-45.78,0 -83.24,37.46 -83.24,83.24l0 145.5"/>
 </g>
</svg>
