<?xml version="1.0" encoding="UTF-8"?>
<!DOCTYPE svg PUBLIC "-//W3C//DTD SVG 1.1//EN" "http://www.w3.org/Graphics/SVG/1.1/DTD/svg11.dtd">
<!-- Creator: CorelDRAW -->
<svg xmlns="http://www.w3.org/2000/svg" xml:space="preserve" width="35.8492mm" height="44.5804mm" version="1.1" style="shape-rendering:geometricPrecision; text-rendering:geometricPrecision; image-rendering:optimizeQuality; fill-rule:evenodd; clip-rule:evenodd"
viewBox="0 0 933.68 1161.08"
 xmlns:xlink="http://www.w3.org/1999/xlink"
 xmlns:xodm="http://www.corel.com/coreldraw/odm/2003">
 <defs>
  <style type="text/css">
   <![CDATA[
    .str0 {stroke:#0092D1;stroke-width:26.04;stroke-miterlimit:22.9256}
    .fil3 {fill:none}
    .fil0 {fill:#0092D1}
    .fil1 {fill:#FEFEFE;fill-rule:nonzero}
    .fil2 {fill:#0092D1;fill-rule:nonzero}
   ]]>
  </style>
 </defs>
 <g id="Capa_x0020_1">
  <metadata id="CorelCorpID_0Corel-Layer"/>
  <path class="fil0" d="M214.59 937.39l504.5 0c84.22,0 153.13,-68.91 153.13,-153.13l0 -153.13 -810.75 0 0 153.13c0,84.22 68.91,153.13 153.13,153.13z"/>
  <path class="fil1" d="M333.35 862.65l-107.46 0 0 -21.35 50.72 -54.06c6.95,-7.61 12.09,-14.22 15.43,-19.92 3.35,-5.66 5,-11.03 5,-16.13 0,-6.95 -1.77,-12.42 -5.26,-16.39 -3.53,-4.01 -8.56,-5.99 -15.07,-5.99 -7.06,0 -12.61,2.42 -16.65,7.28 -4.04,4.82 -6.1,11.17 -6.1,19.08l-31.2 0c0,-9.56 2.28,-18.27 6.84,-26.17 4.56,-7.9 10.99,-14.11 19.33,-18.6 8.31,-4.48 17.75,-6.72 28.3,-6.72 16.17,0 28.7,3.9 37.63,11.65 8.93,7.76 13.42,18.71 13.42,32.82 0,7.75 -2.02,15.66 -6.03,23.7 -4.01,8.05 -10.92,17.42 -20.69,28.12l-35.61 37.56 67.4 0 0 25.14zm124.56 -64.83c0,21.72 -4.48,38.3 -13.45,49.8 -8.97,11.5 -22.12,17.24 -39.4,17.24 -17.09,0 -30.18,-5.62 -39.22,-16.91 -9.04,-11.29 -13.67,-27.46 -13.89,-48.51l0 -28.85c0,-21.94 4.56,-38.55 13.63,-49.91 9.08,-11.36 22.16,-17.02 39.25,-17.02 17.05,0 30.14,5.62 39.18,16.87 9.04,11.25 13.67,27.38 13.89,48.44l0 28.85zm-31.13 -31.72c0,-13.01 -1.76,-22.49 -5.33,-28.41 -3.53,-5.92 -9.08,-8.89 -16.61,-8.89 -7.35,0 -12.75,2.83 -16.21,8.45 -3.49,5.66 -5.33,14.48 -5.55,26.46l0 38.18c0,12.79 1.73,22.27 5.22,28.48 3.49,6.21 9.08,9.34 16.76,9.34 7.61,0 13.08,-2.98 16.46,-8.93 3.38,-5.99 5.11,-15.11 5.26,-27.38l0 -37.3zm157.63 31.72c0,21.72 -4.48,38.3 -13.45,49.8 -8.97,11.5 -22.12,17.24 -39.4,17.24 -17.09,0 -30.18,-5.62 -39.22,-16.91 -9.04,-11.29 -13.67,-27.46 -13.89,-48.51l0 -28.85c0,-21.94 4.56,-38.55 13.63,-49.91 9.08,-11.36 22.16,-17.02 39.25,-17.02 17.05,0 30.14,5.62 39.18,16.87 9.04,11.25 13.67,27.38 13.89,48.44l0 28.85zm-31.13 -31.72c0,-13.01 -1.76,-22.49 -5.33,-28.41 -3.53,-5.92 -9.08,-8.89 -16.61,-8.89 -7.35,0 -12.75,2.83 -16.21,8.45 -3.49,5.66 -5.33,14.48 -5.55,26.46l0 38.18c0,12.79 1.73,22.27 5.22,28.48 3.49,6.21 9.08,9.34 16.76,9.34 7.61,0 13.08,-2.98 16.46,-8.93 3.38,-5.99 5.11,-15.11 5.26,-27.38l0 -37.3zm154.29 -18.6c0,7.64 -1.91,14.37 -5.7,20.29 -3.82,5.88 -9.04,10.58 -15.73,14.11 7.61,3.64 13.63,8.71 18.08,15.14 4.45,6.43 6.69,13.97 6.69,22.67 0,13.93 -4.74,24.92 -14.23,33 -9.48,8.08 -22.34,12.13 -38.66,12.13 -16.28,0 -29.22,-4.04 -38.74,-12.17 -9.56,-8.12 -14.33,-19.11 -14.33,-32.97 0,-8.71 2.24,-16.28 6.69,-22.75 4.45,-6.47 10.44,-11.5 17.97,-15.07 -6.69,-3.53 -11.91,-8.23 -15.66,-14.11 -3.78,-5.92 -5.66,-12.64 -5.66,-20.29 0,-13.34 4.45,-24 13.34,-31.94 8.89,-7.94 21.02,-11.91 36.31,-11.91 15.22,0 27.27,3.93 36.2,11.8 8.93,7.87 13.41,18.56 13.41,32.05zm-27.89 69.94c0,-6.83 -1.95,-12.27 -5.92,-16.35 -3.93,-4.08 -9.26,-6.14 -15.91,-6.14 -6.62,0 -11.91,2.02 -15.84,6.07 -3.97,4.08 -5.92,9.55 -5.92,16.43 0,6.65 1.91,12.06 5.81,16.13 3.86,4.08 9.26,6.14 16.13,6.14 6.76,0 12.05,-1.98 15.91,-5.92 3.82,-3.93 5.73,-9.41 5.73,-16.36zm-3.23 -68.4c0,-6.1 -1.62,-11.02 -4.81,-14.7 -3.23,-3.71 -7.79,-5.55 -13.67,-5.55 -5.84,0 -10.36,1.8 -13.6,5.37 -3.23,3.6 -4.81,8.56 -4.81,14.88 0,6.25 1.58,11.25 4.81,15.07 3.23,3.78 7.79,5.7 13.67,5.7 5.91,0 10.44,-1.91 13.63,-5.7 3.2,-3.82 4.78,-8.82 4.78,-15.07z"/>
  <path class="fil2" d="M259.79 524.34l0 -129.15 43.05 0 0 86.1 86.11 0.01 0 43.05 -129.16 -0.01zm258.31 0l0 -43.05 86.1 0.01 0 -86.1 43.05 -0.01 0 129.15 -129.15 0zm-168.44 -111.39l-30.67 -30.14 30.67 -30.67 -111.4 0 0 -43.05 111.4 0 -30.67 -30.67 30.67 -30.13 82.33 82.33 -82.33 82.34zm207.72 0l-82.34 -82.34 82.34 -82.33 30.67 30.13 -30.67 30.67 111.39 0 0 43.05 -111.39 0 30.67 30.67 -30.67 30.14zm-297.59 -146.92l0 -129.16 129.16 0.01 0 43.05 -86.11 -0.01 0 86.1 -43.05 0zm344.41 0l0 -86.1 -86.1 0 0 -43.05 129.15 0.01 0 129.16 -43.05 -0.01z"/>
  <path class="fil2" d="M68.22 1127.11c-0.48,11.19 -3.63,19.64 -9.42,25.36 -5.79,5.74 -13.94,8.61 -24.48,8.61 -11.1,0 -19.57,-3.65 -25.47,-10.93 -5.9,-7.31 -8.84,-17.71 -8.84,-31.22l0 -16.51c0,-13.46 3.06,-23.84 9.14,-31.15 6.11,-7.28 14.59,-10.93 25.45,-10.93 10.66,0 18.79,2.98 24.33,8.94 5.53,5.97 8.68,14.54 9.44,25.7l-19.85 0c-0.18,-6.91 -1.24,-11.67 -3.19,-14.31 -1.95,-2.62 -5.53,-3.93 -10.73,-3.93 -5.31,0 -9.05,1.86 -11.26,5.56 -2.18,3.72 -3.35,9.81 -3.49,18.31l0 18.54c0,9.74 1.08,16.45 3.26,20.08 2.18,3.65 5.9,5.47 11.21,5.47 5.19,0 8.8,-1.26 10.77,-3.81 1.98,-2.53 3.08,-7.12 3.35,-13.76l19.78 0zm81.22 -7.58c0,13.16 -3.1,23.36 -9.33,30.64 -6.2,7.28 -14.84,10.91 -25.87,10.91 -11,0 -19.64,-3.6 -25.91,-10.82 -6.27,-7.19 -9.46,-17.3 -9.56,-30.25l0 -16.77c0,-13.48 3.13,-24.01 9.35,-31.56 6.25,-7.56 14.91,-11.35 25.98,-11.35 10.91,0 19.5,3.72 25.77,11.14 6.29,7.44 9.46,17.87 9.56,31.28l0 16.77zm-19.85 -16.47c0,-8.84 -1.26,-15.41 -3.77,-19.73 -2.5,-4.29 -6.41,-6.45 -11.71,-6.45 -5.23,0 -9.12,2.07 -11.64,6.22 -2.5,4.16 -3.81,10.48 -3.9,18.95l0 17.43c0,8.59 1.29,14.91 3.84,18.97 2.57,4.07 6.52,6.09 11.85,6.09 5.17,0 9.01,-1.97 11.51,-5.95 2.5,-3.97 3.79,-10.15 3.84,-18.49l0 -17.04zm102.49 56.64l-19.78 0 -28.94 -64.27 0 64.27 -19.78 0 0 -97.99 19.78 0 29.01 64.34 0 -64.34 19.71 0 0 97.99zm57.29 -25.7c0,-4 -1.01,-7.03 -3.06,-9.05 -2.04,-2.04 -5.74,-4.18 -11.14,-6.36 -9.83,-3.72 -16.88,-8.08 -21.2,-13.09 -4.29,-5.01 -6.45,-10.93 -6.45,-17.75 0,-8.25 2.94,-14.89 8.77,-19.89 5.86,-5.01 13.3,-7.51 22.33,-7.51 6,0 11.37,1.26 16.08,3.81 4.71,2.55 8.34,6.13 10.87,10.75 2.53,4.64 3.79,9.88 3.79,15.76l-19.71 0c0,-4.57 -0.97,-8.06 -2.92,-10.45 -1.95,-2.41 -4.78,-3.61 -8.45,-3.61 -3.45,0 -6.15,1.01 -8.08,3.06 -1.93,2.04 -2.9,4.8 -2.9,8.25 0,2.69 1.08,5.12 3.24,7.31 2.16,2.16 5.97,4.43 11.44,6.75 9.56,3.45 16.49,7.69 20.83,12.73 4.32,5.03 6.5,11.42 6.5,19.2 0,8.52 -2.73,15.18 -8.15,19.98 -5.42,4.8 -12.82,7.21 -22.14,7.21 -6.32,0 -12.08,-1.31 -17.3,-3.9 -5.19,-2.62 -9.28,-6.34 -12.2,-11.21 -2.94,-4.85 -4.41,-10.57 -4.41,-17.16l19.85 0c0,5.65 1.1,9.76 3.28,12.31 2.21,2.55 5.79,3.84 10.77,3.84 6.91,0 10.36,-3.65 10.36,-10.96zm102.06 -14.47c0,13.16 -3.1,23.36 -9.33,30.64 -6.2,7.28 -14.84,10.91 -25.87,10.91 -11,0 -19.64,-3.6 -25.91,-10.82 -6.27,-7.19 -9.46,-17.3 -9.56,-30.25l0 -16.77c0,-13.48 3.13,-24.01 9.35,-31.56 6.25,-7.56 14.91,-11.35 25.98,-11.35 10.91,0 19.5,3.72 25.77,11.14 6.29,7.44 9.46,17.87 9.56,31.28l0 16.77zm-19.85 -16.47c0,-8.84 -1.26,-15.41 -3.77,-19.73 -2.5,-4.29 -6.41,-6.45 -11.71,-6.45 -5.23,0 -9.12,2.07 -11.64,6.22 -2.5,4.16 -3.81,10.48 -3.9,18.95l0 17.43c0,8.59 1.29,14.91 3.84,18.97 2.57,4.07 6.52,6.09 11.85,6.09 5.17,0 9.01,-1.97 11.51,-5.95 2.5,-3.97 3.79,-10.15 3.84,-18.49l0 -17.04zm53.8 40.24l34.73 0 0 16.4 -54.51 0 0 -97.99 19.78 0 0 81.59zm66.82 16.4l-19.78 0 0 -97.99 19.78 0 0 97.99zm16.63 0l0 -97.99 25.91 0c11.44,0 20.56,3.63 27.36,10.91 6.8,7.26 10.27,17.23 10.38,29.88l0 15.87c0,12.88 -3.4,22.99 -10.18,30.32 -6.8,7.33 -16.17,11 -28.12,11l-25.36 0zm19.78 -81.45l0 65.05 5.93 0c6.59,0 11.23,-1.74 13.94,-5.21 2.69,-3.47 4.09,-9.46 4.22,-17.99l0 -17.02c0,-9.17 -1.29,-15.53 -3.84,-19.16 -2.55,-3.6 -6.91,-5.49 -13.05,-5.67l-7.21 0zm103.41 61.47l-26.97 0 -5.26 19.98 -20.93 0 30.62 -97.99 18.1 0 30.82 97.99 -21.13 0 -5.26 -19.98zm-22.67 -16.54l18.31 0 -9.14 -34.96 -9.17 34.96zm123.19 3.93c-0.48,11.19 -3.63,19.64 -9.42,25.36 -5.79,5.74 -13.94,8.61 -24.48,8.61 -11.1,0 -19.57,-3.65 -25.47,-10.93 -5.9,-7.31 -8.84,-17.71 -8.84,-31.22l0 -16.51c0,-13.46 3.06,-23.84 9.14,-31.15 6.11,-7.28 14.59,-10.93 25.45,-10.93 10.66,0 18.79,2.98 24.33,8.94 5.53,5.97 8.68,14.54 9.44,25.7l-19.85 0c-0.18,-6.91 -1.24,-11.67 -3.19,-14.31 -1.95,-2.62 -5.53,-3.93 -10.73,-3.93 -5.31,0 -9.05,1.86 -11.26,5.56 -2.18,3.72 -3.35,9.81 -3.49,18.31l0 18.54c0,9.74 1.08,16.45 3.26,20.08 2.18,3.65 5.9,5.47 11.21,5.47 5.19,0 8.8,-1.26 10.77,-3.81 1.98,-2.53 3.08,-7.12 3.35,-13.76l19.78 0zm32.87 32.59l-19.78 0 0 -97.99 19.78 0 0 97.99zm85.63 -40.17c0,13.16 -3.1,23.36 -9.33,30.64 -6.2,7.28 -14.84,10.91 -25.87,10.91 -11,0 -19.64,-3.6 -25.91,-10.82 -6.27,-7.19 -9.46,-17.3 -9.56,-30.25l0 -16.77c0,-13.48 3.13,-24.01 9.35,-31.56 6.25,-7.56 14.91,-11.35 25.98,-11.35 10.91,0 19.5,3.72 25.77,11.14 6.29,7.44 9.46,17.87 9.56,31.28l0 16.77zm-19.85 -16.47c0,-8.84 -1.26,-15.41 -3.77,-19.73 -2.5,-4.29 -6.41,-6.45 -11.71,-6.45 -5.23,0 -9.12,2.07 -11.64,6.22 -2.5,4.16 -3.81,10.48 -3.9,18.95l0 17.43c0,8.59 1.29,14.91 3.84,18.97 2.57,4.07 6.52,6.09 11.85,6.09 5.17,0 9.01,-1.97 11.51,-5.95 2.5,-3.97 3.79,-10.15 3.84,-18.49l0 -17.04zm-11.55 -67.53l21.41 0 -18.72 20.81 -15.87 0 13.19 -20.81zm114.04 124.18l-19.78 0 -28.94 -64.27 0 64.27 -19.78 0 0 -97.99 19.78 0 29.01 64.34 0 -64.34 19.71 0 0 97.99z"/>
  <path class="fil3 str0" d="M872.22 444.46l0 -278.31c0,-84.22 -68.91,-153.13 -153.13,-153.13l-504.5 0c-84.22,0 -153.13,68.91 -153.13,153.13l0 267.66"/>
 </g>
</svg>
