<?xml version="1.0" encoding="UTF-8"?>
<!DOCTYPE svg PUBLIC "-//W3C//DTD SVG 1.1//EN" "http://www.w3.org/Graphics/SVG/1.1/DTD/svg11.dtd">
<!-- Creator: CorelDRAW -->
<svg xmlns="http://www.w3.org/2000/svg" xml:space="preserve" width="32.1292mm" height="44.5804mm" version="1.1" style="shape-rendering:geometricPrecision; text-rendering:geometricPrecision; image-rendering:optimizeQuality; fill-rule:evenodd; clip-rule:evenodd"
viewBox="0 0 822.23 1140.87"
 xmlns:xlink="http://www.w3.org/1999/xlink"
 xmlns:xodm="http://www.corel.com/coreldraw/odm/2003">
 <defs>
  <style type="text/css">
   <![CDATA[
    .str0 {stroke:#0092D1;stroke-width:25.59;stroke-miterlimit:22.9256}
    .fil3 {fill:none}
    .fil0 {fill:#0092D1}
    .fil1 {fill:#FEFEFE;fill-rule:nonzero}
    .fil2 {fill:#0092D1;fill-rule:nonzero}
   ]]>
  </style>
 </defs>
 <g id="Capa_x0020_1">
  <metadata id="CorelCorpID_0Corel-Layer"/>
  <path class="fil0" d="M163.26 921.06l495.71 0c82.75,0 150.46,-67.71 150.46,-150.46l0 -150.47 -796.64 0 0 150.47c0,82.75 67.71,150.46 150.46,150.46z"/>
  <path class="fil1" d="M279.95 847.63l-105.59 0 0 -20.98 49.84 -53.12c6.83,-7.48 11.88,-13.98 15.17,-19.57 3.29,-5.56 4.91,-10.84 4.91,-15.85 0,-6.83 -1.74,-12.21 -5.16,-16.11 -3.47,-3.94 -8.41,-5.89 -14.81,-5.89 -6.93,0 -12.39,2.38 -16.36,7.15 -3.97,4.73 -6,10.98 -6,18.74l-30.66 0c0,-9.39 2.24,-17.95 6.72,-25.71 4.48,-7.76 10.8,-13.87 18.99,-18.27 8.16,-4.4 17.44,-6.61 27.81,-6.61 15.89,0 28.2,3.83 36.98,11.45 8.78,7.62 13.18,18.38 13.18,32.25 0,7.62 -1.99,15.38 -5.92,23.29 -3.94,7.91 -10.73,17.12 -20.33,27.63l-34.99 36.91 66.23 0 0 24.7zm122.39 -63.7c0,21.34 -4.41,37.63 -13.22,48.93 -8.81,11.3 -21.74,16.94 -38.71,16.94 -16.79,0 -29.65,-5.53 -38.53,-16.61 -8.88,-11.09 -13.43,-26.98 -13.65,-47.67l0 -28.35c0,-21.56 4.48,-37.88 13.4,-49.04 8.92,-11.16 21.78,-16.72 38.57,-16.72 16.76,0 29.61,5.53 38.49,16.58 8.89,11.05 13.44,26.9 13.65,47.6l0 28.35zm-30.59 -31.17c0,-12.78 -1.73,-22.1 -5.24,-27.91 -3.47,-5.81 -8.92,-8.74 -16.32,-8.74 -7.22,0 -12.53,2.78 -15.93,8.31 -3.43,5.56 -5.24,14.23 -5.45,26l0 37.52c0,12.57 1.7,21.89 5.13,27.99 3.43,6.1 8.92,9.17 16.47,9.17 7.48,0 12.85,-2.93 16.18,-8.78 3.32,-5.89 5.02,-14.84 5.16,-26.9l0 -36.65zm125.46 94.87l-30.59 0 0 -118.09 -36.51 11.27 0 -24.7 63.81 -22.75 3.29 0 0 154.27zm150.44 -113.14c0,7.51 -1.88,14.12 -5.6,19.93 -3.75,5.78 -8.88,10.4 -15.45,13.87 7.48,3.58 13.4,8.56 17.77,14.88 4.37,6.32 6.57,13.72 6.57,22.28 0,13.69 -4.66,24.49 -13.98,32.43 -9.32,7.94 -21.95,11.92 -37.99,11.92 -16,0 -28.71,-3.97 -38.06,-11.95 -9.39,-7.98 -14.08,-18.78 -14.08,-32.39 0,-8.56 2.2,-16 6.57,-22.35 4.37,-6.35 10.26,-11.3 17.66,-14.8 -6.57,-3.47 -11.7,-8.09 -15.39,-13.87 -3.72,-5.81 -5.56,-12.42 -5.56,-19.93 0,-13.11 4.37,-23.58 13.11,-31.38 8.74,-7.8 20.66,-11.7 35.68,-11.7 14.95,0 26.8,3.86 35.57,11.59 8.78,7.73 13.18,18.24 13.18,31.49zm-27.41 68.72c0,-6.72 -1.91,-12.06 -5.81,-16.07 -3.86,-4.01 -9.1,-6.03 -15.64,-6.03 -6.5,0 -11.7,1.99 -15.56,5.96 -3.9,4.01 -5.81,9.39 -5.81,16.14 0,6.54 1.88,11.85 5.71,15.85 3.79,4.01 9.1,6.03 15.85,6.03 6.64,0 11.84,-1.95 15.64,-5.81 3.75,-3.86 5.63,-9.25 5.63,-16.07zm-3.18 -67.21c0,-5.99 -1.59,-10.83 -4.73,-14.44 -3.18,-3.65 -7.66,-5.45 -13.44,-5.45 -5.74,0 -10.18,1.77 -13.36,5.27 -3.18,3.54 -4.73,8.41 -4.73,14.63 0,6.14 1.55,11.05 4.73,14.81 3.18,3.72 7.66,5.6 13.44,5.6 5.81,0 10.25,-1.88 13.4,-5.6 3.14,-3.76 4.69,-8.67 4.69,-14.81z"/>
  <path class="fil2" d="M207.25 528.72l0 -245.14 142.7 -60.65 0 40.77 101.93 -41.28 0 61.66 163.09 0.01 0 244.63 -407.72 0zm30.58 -30.58l346.56 0 0 -183.37 -163.09 0.01 0 -46.99 -101.93 40.77 0 -40.26 -81.54 36.19 0 193.67zm157.99 -50.96l30.58 0 0 -81.54 -30.58 0 0 81.54zm-81.54 0l30.58 0 0 -81.54 -30.58 0 0 81.54zm163.09 0l30.58 0 0 -81.54 -30.58 0 0 81.54zm137.61 -163.09l-91.74 0 20.39 -163.09 50.96 -0.01 20.39 163.09 0 0.01zm-377.14 214.05l346.56 0 -346.56 0z"/>
  <path class="fil2" d="M107.41 1119.88l-26.5 0 -5.17 19.64 -20.56 0 30.09 -96.28 17.79 0 30.29 96.28 -20.76 0 -5.17 -19.64zm-22.28 -16.25l17.99 0 -8.98 -34.35 -9.01 34.35zm82.61 -60.4l18.17 69.63 18.12 -69.63 25.39 0 0 96.28 -19.5 0 0 -26.05 1.78 -40.15 -19.23 66.2 -13.23 0 -19.25 -66.2 1.78 40.15 0 26.05 -19.43 0 0 -96.28 25.39 0zm96.76 62.43l0 33.85 -19.45 0 0 -96.28 32.8 0c9.53,0 17.13,2.96 22.8,8.87 5.66,5.89 8.49,13.57 8.49,23 0,9.44 -2.8,16.88 -8.4,22.37 -5.6,5.46 -13.36,8.19 -23.27,8.19l-12.96 0zm0 -16.25l13.34 0c3.72,0 6.57,-1.22 8.6,-3.63 2.03,-2.42 3.05,-5.94 3.05,-10.54 0,-4.79 -1.04,-8.6 -3.11,-11.44 -2.05,-2.82 -4.83,-4.27 -8.33,-4.31l-13.54 0 0 29.93zm77.01 33.99l34.13 0 0 16.11 -53.56 0 0 -96.28 19.43 0 0 80.17zm65.66 16.11l-19.43 0 0 -96.28 19.43 0 0 96.28zm63.47 -19.64l-26.5 0 -5.17 19.64 -20.56 0 30.09 -96.28 17.79 0 30.29 96.28 -20.76 0 -5.17 -19.64zm-22.28 -16.25l17.99 0 -8.98 -34.35 -9.01 34.35zm121.04 3.86c-0.47,10.99 -3.56,19.3 -9.25,24.92 -5.69,5.64 -13.7,8.46 -24.06,8.46 -10.9,0 -19.23,-3.59 -25.03,-10.74 -5.8,-7.18 -8.69,-17.4 -8.69,-30.67l0 -16.23c0,-13.23 3,-23.43 8.98,-30.6 6,-7.16 14.33,-10.74 25.01,-10.74 10.47,0 18.46,2.93 23.9,8.78 5.44,5.87 8.53,14.29 9.27,25.26l-19.5 0c-0.18,-6.79 -1.22,-11.47 -3.14,-14.06 -1.92,-2.57 -5.44,-3.86 -10.54,-3.86 -5.22,0 -8.89,1.83 -11.06,5.46 -2.14,3.66 -3.3,9.64 -3.43,17.99l0 18.22c0,9.57 1.06,16.16 3.2,19.73 2.14,3.59 5.8,5.37 11.01,5.37 5.1,0 8.64,-1.24 10.58,-3.75 1.94,-2.48 3.02,-7 3.3,-13.52l19.43 0zm32.3 32.03l-19.43 0 0 -96.28 19.43 0 0 96.28zm84.14 -39.47c0,12.93 -3.05,22.95 -9.16,30.11 -6.09,7.16 -14.58,10.72 -25.41,10.72 -10.81,0 -19.3,-3.54 -25.46,-10.63 -6.16,-7.06 -9.3,-17 -9.39,-29.72l0 -16.48c0,-13.25 3.07,-23.59 9.19,-31.01 6.14,-7.43 14.65,-11.15 25.52,-11.15 10.72,0 19.16,3.66 25.33,10.95 6.18,7.31 9.3,17.56 9.39,30.74l0 16.48zm-19.5 -16.18c0,-8.69 -1.24,-15.14 -3.7,-19.39 -2.46,-4.22 -6.3,-6.34 -11.51,-6.34 -5.14,0 -8.96,2.03 -11.44,6.12 -2.46,4.08 -3.75,10.29 -3.84,18.62l0 17.13c0,8.44 1.26,14.65 3.77,18.64 2.53,3.99 6.41,5.98 11.64,5.98 5.08,0 8.85,-1.94 11.31,-5.85 2.46,-3.91 3.72,-9.98 3.77,-18.17l0 -16.75zm-11.35 -66.36l21.03 0 -18.39 20.45 -15.6 0 12.96 -20.45zm112.06 122.01l-19.43 0 -28.44 -63.15 0 63.15 -19.43 0 0 -96.28 19.43 0 28.51 63.22 0 -63.22 19.36 0 0 96.28z"/>
  <path class="fil3 str0" d="M809.43 436.72l0 -273.46c0,-82.75 -67.71,-150.46 -150.46,-150.46l-495.71 0c-82.75,0 -150.46,67.71 -150.46,150.46l0 263"/>
 </g>
</svg>
