<?xml version="1.0" encoding="UTF-8"?>
<!DOCTYPE svg PUBLIC "-//W3C//DTD SVG 1.1//EN" "http://www.w3.org/Graphics/SVG/1.1/DTD/svg11.dtd">
<!-- Creator: CorelDRAW -->
<svg xmlns="http://www.w3.org/2000/svg" xml:space="preserve" width="12.8313mm" height="12.8313mm" version="1.1" style="shape-rendering:geometricPrecision; text-rendering:geometricPrecision; image-rendering:optimizeQuality; fill-rule:evenodd; clip-rule:evenodd"
viewBox="0 0 33.28 33.28"
 xmlns:xlink="http://www.w3.org/1999/xlink"
 xmlns:xodm="http://www.corel.com/coreldraw/odm/2003">
 <defs>
  <style type="text/css">
   <![CDATA[
    .str0 {stroke:#0092D1;stroke-width:1.3;stroke-miterlimit:10}
    .fil1 {fill:#0092D1}
    .fil0 {fill:#FEFEFE;fill-rule:nonzero}
   ]]>
  </style>
 </defs>
 <g id="Capa_x0020_1">
  <metadata id="CorelCorpID_0Corel-Layer"/>
  <g id="_2169456412592">
   <path class="fil0 str0" d="M0.65 16.64c0,-8.83 7.16,-15.99 15.99,-15.99 8.83,0 15.99,7.16 15.99,15.99 0,8.83 -7.16,15.99 -15.99,15.99 -8.83,0 -15.99,-7.16 -15.99,-15.99z"/>
   <path class="fil1" d="M17.43 6.75c-5.15,0 -9.33,4.18 -9.33,9.33 0,1.76 0.49,3.41 1.34,4.82l-1.68 5.01 5.17 -1.65c1.34,0.74 2.87,1.16 4.51,1.16 5.15,0 9.33,-4.18 9.33,-9.33 0,-5.15 -4.18,-9.33 -9.33,-9.33zm0 17.1c-1.58,0 -3.05,-0.47 -4.27,-1.28l-2.99 0.96 0.97 -2.88c-0.93,-1.28 -1.48,-2.85 -1.48,-4.55 0,-4.28 3.48,-7.77 7.77,-7.77 4.28,0 7.77,3.48 7.77,7.77 0,4.28 -3.48,7.77 -7.77,7.77zm4.38 -5.65c-0.23,-0.13 -1.38,-0.75 -1.6,-0.84 -0.22,-0.09 -0.37,-0.13 -0.54,0.1 -0.17,0.23 -0.64,0.75 -0.79,0.9 -0.15,0.15 -0.29,0.17 -0.52,0.04 -0.23,-0.13 -0.99,-0.41 -1.87,-1.25 -0.68,-0.66 -1.13,-1.45 -1.26,-1.7 -0.13,-0.24 -0,-0.37 0.12,-0.48 0.11,-0.1 0.25,-0.27 0.37,-0.4 0.12,-0.13 0.17,-0.23 0.25,-0.39 0.09,-0.16 0.05,-0.3 -0,-0.42 -0.05,-0.12 -0.49,-1.31 -0.67,-1.8 -0.18,-0.48 -0.38,-0.41 -0.52,-0.42 -0.14,-0 -0.3,-0.03 -0.46,-0.04 -0.16,-0.01 -0.42,0.04 -0.65,0.27 -0.23,0.23 -0.86,0.78 -0.91,1.96 -0.04,1.17 0.77,2.34 0.88,2.5 0.11,0.16 1.55,2.7 3.93,3.75 2.39,1.04 2.4,0.73 2.84,0.7 0.44,-0.02 1.43,-0.52 1.65,-1.07 0.22,-0.55 0.24,-1.03 0.18,-1.13 -0.06,-0.1 -0.21,-0.17 -0.45,-0.3z"/>
  </g>
 </g>
</svg>
