<?xml version="1.0" encoding="UTF-8"?>
<!DOCTYPE svg PUBLIC "-//W3C//DTD SVG 1.1//EN" "http://www.w3.org/Graphics/SVG/1.1/DTD/svg11.dtd">
<!-- Creator: CorelDRAW -->
<svg xmlns="http://www.w3.org/2000/svg" xml:space="preserve" width="25.2528mm" height="33.1435mm" version="1.1" style="shape-rendering:geometricPrecision; text-rendering:geometricPrecision; image-rendering:optimizeQuality; fill-rule:evenodd; clip-rule:evenodd"
viewBox="0 0 152.3 199.89"
 xmlns:xlink="http://www.w3.org/1999/xlink"
 xmlns:xodm="http://www.corel.com/coreldraw/odm/2003">
 <defs>
  <style type="text/css">
   <![CDATA[
    .fil0 {fill:#0092D1;fill-rule:nonzero}
   ]]>
  </style>
 </defs>
 <g id="Capa_x0020_1">
  <metadata id="CorelCorpID_0Corel-Layer"/>
  <path class="fil0" d="M54.02 111.37l8.33 -27.13 -21.89 -17.61 27.13 0 8.57 -26.65 8.57 26.65 27.13 0 -22.13 17.61 8.33 27.13 -21.89 -16.89 -22.13 16.89zm-34.98 88.52l0 -73.53c-6.03,-6.66 -10.71,-14.28 -14.04,-22.84 -3.33,-8.57 -5,-17.69 -5,-27.37 0,-21.26 7.38,-39.26 22.13,-54.02 14.75,-14.75 32.76,-22.13 54.02,-22.13 21.26,0 39.26,7.38 54.02,22.13 14.75,14.75 22.13,32.76 22.13,54.02 0,9.68 -1.67,18.8 -5,27.37 -3.33,8.57 -8.01,16.18 -14.04,22.84l0 73.53 -57.11 -19.04 -57.11 19.04zm57.11 -66.63c15.87,0 29.35,-5.55 40.45,-16.66 11.11,-11.11 16.66,-24.59 16.66,-40.45 0,-15.87 -5.55,-29.35 -16.66,-40.45 -11.11,-11.11 -24.59,-16.66 -40.45,-16.66 -15.87,0 -29.35,5.55 -40.45,16.66 -11.11,11.1 -16.66,24.59 -16.66,40.45 0,15.87 5.55,29.35 16.66,40.45 11.11,11.11 24.59,16.66 40.45,16.66zm-38.07 38.31l38.07 -9.76 38.07 9.76 0 -29.51c-5.55,3.17 -11.54,5.67 -17.97,7.49 -6.43,1.82 -13.13,2.74 -20.11,2.74 -6.98,0 -13.68,-0.91 -20.11,-2.74 -6.43,-1.82 -12.42,-4.32 -17.97,-7.49l0 29.51zm38.07 -14.75z"/>
 </g>
</svg>
