<?xml version="1.0" encoding="UTF-8"?>
<!DOCTYPE svg PUBLIC "-//W3C//DTD SVG 1.1//EN" "http://www.w3.org/Graphics/SVG/1.1/DTD/svg11.dtd">
<!-- Creator: CorelDRAW -->
<svg xmlns="http://www.w3.org/2000/svg" xml:space="preserve" width="40.8637mm" height="40.0816mm" version="1.1" style="shape-rendering:geometricPrecision; text-rendering:geometricPrecision; image-rendering:optimizeQuality; fill-rule:evenodd; clip-rule:evenodd"
viewBox="0 0 671.73 658.87"
 xmlns:xlink="http://www.w3.org/1999/xlink"
 xmlns:xodm="http://www.corel.com/coreldraw/odm/2003">
 <defs>
  <style type="text/css">
   <![CDATA[
    .fil0 {fill:#D2D3D5}
    .fil1 {fill:#0092D1}
    .fil2 {fill:#FEFEFE;fill-rule:nonzero}
   ]]>
  </style>
 </defs>
 <g id="Capa_x0020_1">
  <metadata id="CorelCorpID_0Corel-Layer"/>
  <rect class="fil0" x="-0" y="-0" width="671.73" height="658.87" rx="329.44" ry="329.44"/>
  <g id="_2167750550176">
   <circle class="fil1" cx="335.87" cy="329.44" r="293.68"/>
   <path class="fil2" d="M335.86 338.06c-14.36,0 -26.57,-5.03 -36.62,-15.08 -10.06,-10.06 -15.08,-22.27 -15.08,-36.63 0,-14.36 5.02,-26.57 15.08,-36.62 10.05,-10.05 22.26,-15.08 36.62,-15.08 14.37,0 26.57,5.03 36.62,15.08 10.06,10.05 15.08,22.26 15.09,36.62 0,14.36 -5.03,26.57 -15.09,36.63 -10.05,10.05 -22.26,15.08 -36.62,15.08zm-103.42 172.36l0 -133.15c-10.92,-12.07 -19.39,-25.86 -25.43,-41.37 -6.03,-15.51 -9.05,-32.03 -9.05,-49.55 0,-38.49 13.36,-71.1 40.08,-97.81 26.72,-26.72 59.32,-40.07 97.81,-40.07 38.49,0 71.1,13.35 97.81,40.07 26.72,26.72 40.08,59.32 40.08,97.81 0,17.52 -3.02,34.04 -9.05,49.55 -6.03,15.51 -14.51,29.3 -25.43,41.37l0 133.15 -103.42 -34.47 -103.42 34.47zm103.42 -120.65c28.73,0 53.15,-10.05 73.26,-30.16 20.11,-20.11 30.16,-44.53 30.16,-73.25 0,-28.73 -10.05,-53.15 -30.16,-73.25 -20.11,-20.11 -44.53,-30.17 -73.26,-30.17 -28.73,0 -53.14,10.06 -73.25,30.17 -20.11,20.1 -30.16,44.53 -30.16,73.25 0,28.73 10.05,53.15 30.16,73.25 20.11,20.11 44.53,30.16 73.25,30.16zm-68.94 69.38l68.94 -17.67 68.94 17.67 0 -53.43c-10.05,5.75 -20.9,10.27 -32.53,13.57 -11.64,3.3 -23.77,4.96 -36.41,4.96 -12.64,0 -24.77,-1.66 -36.41,-4.96 -11.63,-3.3 -22.48,-7.82 -32.53,-13.57l0 53.43zm68.94 -26.72z"/>
  </g>
 </g>
</svg>
