<?xml version="1.0" encoding="UTF-8"?>
<!DOCTYPE svg PUBLIC "-//W3C//DTD SVG 1.1//EN" "http://www.w3.org/Graphics/SVG/1.1/DTD/svg11.dtd">
<!-- Creator: CorelDRAW -->
<svg xmlns="http://www.w3.org/2000/svg" xml:space="preserve" width="13.0113mm" height="13.0113mm" version="1.1" style="shape-rendering:geometricPrecision; text-rendering:geometricPrecision; image-rendering:optimizeQuality; fill-rule:evenodd; clip-rule:evenodd"
viewBox="0 0 36.6 36.6"
 xmlns:xlink="http://www.w3.org/1999/xlink"
 xmlns:xodm="http://www.corel.com/coreldraw/odm/2003">
 <defs>
  <style type="text/css">
   <![CDATA[
    .str0 {stroke:#0092D1;stroke-width:1.41;stroke-miterlimit:22.9256}
    .fil0 {fill:#FEFEFE}
    .fil1 {fill:#0092D1}
   ]]>
  </style>
 </defs>
 <g id="Capa_x0020_1">
  <metadata id="CorelCorpID_0Corel-Layer"/>
  <g id="_2169253768432">
   <path class="fil0 str0" d="M18.3 0.7c-9.72,0 -17.6,7.88 -17.6,17.6 0,9.72 7.88,17.6 17.6,17.6 9.72,0 17.6,-7.88 17.6,-17.6 0,-9.72 -7.88,-17.6 -17.6,-17.6z"/>
   <g>
    <path class="fil1" d="M29.58 23.96l-0 0c0,1.11 -0.9,2.02 -2.02,2.02l-18.52 0c-1.11,0 -2.02,-0.9 -2.02,-2.02l0 -10.65c0,-0.12 0.01,-0.23 0.03,-0.34l10.64 6.64c0.01,0.01 0.03,0.01 0.04,0.02 0.01,0.01 0.03,0.01 0.04,0.02 0.07,0.04 0.15,0.07 0.23,0.09 0.01,0 0.02,0 0.02,0.01 0.09,0.02 0.17,0.03 0.26,0.03l0 0c0,0 0,0 0,0 0.09,0 0.18,-0.01 0.26,-0.03 0.01,-0 0.02,-0 0.02,-0.01 0.08,-0.02 0.16,-0.05 0.23,-0.09 0.01,-0.01 0.03,-0.01 0.04,-0.02 0.01,-0.01 0.03,-0.01 0.04,-0.02l10.64 -6.64c0.02,0.11 0.03,0.23 0.03,0.34l0 10.65z"/>
    <polygon class="fil1" points="18.3,6.09 29.44,13.03 7.16,13.03 "/>
   </g>
  </g>
 </g>
</svg>
