<?xml version="1.0" encoding="UTF-8"?>
<!DOCTYPE svg PUBLIC "-//W3C//DTD SVG 1.1//EN" "http://www.w3.org/Graphics/SVG/1.1/DTD/svg11.dtd">
<!-- Creator: CorelDRAW -->
<svg xmlns="http://www.w3.org/2000/svg" xml:space="preserve" width="20.8102mm" height="34.5809mm" version="1.1" style="shape-rendering:geometricPrecision; text-rendering:geometricPrecision; image-rendering:optimizeQuality; fill-rule:evenodd; clip-rule:evenodd"
viewBox="0 0 283.38 470.9"
 xmlns:xlink="http://www.w3.org/1999/xlink"
 xmlns:xodm="http://www.corel.com/coreldraw/odm/2003">
 <defs>
  <style type="text/css">
   <![CDATA[
    .fil0 {fill:#0092D1;fill-rule:nonzero}
   ]]>
  </style>
 </defs>
 <g id="Capa_x0020_1">
  <metadata id="CorelCorpID_0Corel-Layer"/>
  <path class="fil0" d="M79.06 466.74c-6.34,3.63 -12.21,4.87 -17.54,3.78 -5.33,-1.16 -9.43,-4.17 -12.21,-8.96 -2.78,-4.87 -3.55,-10.82 -2.16,-17.85l11.98 -63.2c1.08,-5.72 -0.54,-10.51 -4.71,-14.22l-45.75 -42.11c-5.25,-5.02 -8.19,-10.43 -8.58,-16.23 -0.46,-5.79 1.16,-10.97 4.87,-15.53 3.63,-4.48 8.97,-7.11 15.92,-7.88l65.46 -7.5c4.02,-0.46 7.19,-2.93 9.27,-7.42l23.73 -53c2.63,-5.56 5.8,-9.89 9.58,-12.98 3.71,-3.09 7.96,-4.64 12.68,-4.64 4.79,0 9.12,1.55 12.98,4.64 3.86,3.09 6.95,7.42 9.43,12.98l23.73 53c2.17,4.64 5.18,7.11 9.04,7.42l65.69 7.5c7.11,0.77 12.44,3.4 16.07,7.88 3.63,4.56 5.18,9.74 4.79,15.53 -0.46,5.8 -3.4,11.2 -8.89,16.23l-45.67 42.11c-4.1,3.71 -5.64,8.5 -4.56,14.22l11.98 63.2c1.39,7.03 0.69,12.98 -2.17,17.85 -2.78,4.79 -6.8,7.8 -12.21,8.96 -5.33,1.08 -11.2,-0.15 -17.54,-3.78l-55.49 -31.91c-2.39,-1.31 -4.79,-2.01 -7.19,-2.01 -2.47,0 -4.79,0.7 -7.03,2.01l-55.49 31.91zm-14.68 -5.41l-9.35 -6.8 58.43 -74.71 9.12 7.03 -58.19 74.48zm37.79 -119.76l-96.22 -35.08 3.86 -10.82 96.45 35.46 -4.1 10.43zm116.85 119.76l-58.2 -74.48 8.81 -7.03 58.43 74.71 -9.04 6.8zm-89.96 -88.93c-2.4,0 -3.56,-1.62 -3.56,-4.79 0,-1.16 0.23,-2.7 0.85,-4.48l3.4 -9.97 -8.12 -4.79c-3.48,-1.93 -5.25,-3.79 -5.25,-5.41 0,-2.24 2.24,-3.4 6.57,-3.4l11.82 0 2.24 -11.13c0.77,-3.48 2.24,-5.18 4.56,-5.18 2.24,0 3.71,1.7 4.48,5.18l2.47 11.13 11.82 0c4.33,0 6.57,1.16 6.57,3.4 0,1.62 -1.78,3.48 -5.25,5.41l-8.11 4.79 3.4 9.97c0.46,1.31 0.7,2.86 0.7,4.48 0,3.17 -1.16,4.79 -3.4,4.79 -1.7,0 -3.79,-1.31 -6.34,-3.86l-6.34 -6.57 -6.34 6.57c-2.63,2.55 -4.64,3.86 -6.18,3.86zm-57.96 80.82l55.49 -32.14c6.95,-3.94 11.98,-5.95 14.99,-5.95 3.17,0 8.19,2.01 15.15,5.95l55.49 32.14c3.01,1.62 5.33,1.85 6.96,0.54 1.7,-1.31 2.16,-3.55 1.39,-6.88l-12.21 -64.52c-2.01,-11.2 -0.23,-19.24 5.18,-24.26l50.31 -45.74c3.01,-2.71 4.17,-5.25 3.48,-7.65 -0.7,-2.47 -2.94,-3.86 -6.65,-4.32l-68.86 -7.96c-7.88,-0.85 -13.6,-5.33 -17.23,-13.29l-25.12 -56.17c-1.08,-2.55 -2.17,-4.56 -3.4,-6.03 -1.16,-1.39 -2.71,-2.09 -4.48,-2.09 -1.7,0 -3.09,0.7 -4.25,2.09 -1.08,1.47 -2.24,3.48 -3.48,6.03l-25.12 56.17c-3.63,7.96 -9.43,12.44 -17.47,13.29l-68.55 7.96c-3.79,0.46 -6.03,1.85 -6.72,4.32 -0.69,2.4 0.39,4.94 3.32,7.65l50.23 45.74c5.87,5.18 7.73,13.21 5.41,24.26l-12.44 64.52c-0.62,3.32 0,5.56 1.7,6.88 1.78,1.31 4.02,1.08 6.88,-0.54zm64.76 -141.08l0 -100.21 11.36 0 0 100.21 -11.36 0zm45.06 29.44l-4.02 -10.43 96.68 -35.46 3.79 10.82 -96.45 35.08zm-84.86 -130.81l-65.46 -61.58c-6.03,-5.56 -10.12,-10.58 -12.37,-14.91 -2.16,-4.41 -3.25,-9.74 -3.25,-16.07l0 -86.53c0,-8.73 3.09,-16.15 9.27,-22.41 6.18,-6.18 13.68,-9.27 22.41,-9.27l189.73 0c8.73,0 16.23,3.09 22.41,9.27 6.18,6.26 9.27,13.68 9.27,22.41l0 86.53c0,6.33 -1.08,11.67 -3.25,16.07 -2.24,4.33 -6.26,9.35 -12.13,14.91l-65.69 61.58 -90.96 0zm5.87 -18.08l79.22 0 60.9 -58.18c2.63,-2.47 4.56,-5.02 5.95,-7.8 1.32,-2.86 2.01,-5.64 2.01,-8.5l0 -86.53c0,-3.71 -1.31,-6.95 -3.94,-9.58 -2.71,-2.63 -5.87,-3.94 -9.66,-3.94l-189.73 0c-3.79,0 -6.96,1.31 -9.58,3.94 -2.71,2.63 -4.02,5.87 -4.02,9.58l0 86.53c0,2.86 0.77,5.64 2.16,8.5 1.47,2.78 3.4,5.33 5.8,7.8l60.9 58.18zm-7.73 5.41l0 -186.51 94.67 0 0 186.51 -94.67 0z"/>
 </g>
</svg>
