<?xml version="1.0" encoding="UTF-8"?>
<!DOCTYPE svg PUBLIC "-//W3C//DTD SVG 1.1//EN" "http://www.w3.org/Graphics/SVG/1.1/DTD/svg11.dtd">
<!-- Creator: CorelDRAW -->
<svg xmlns="http://www.w3.org/2000/svg" xml:space="preserve" width="35.5168mm" height="35.5168mm" version="1.1" style="shape-rendering:geometricPrecision; text-rendering:geometricPrecision; image-rendering:optimizeQuality; fill-rule:evenodd; clip-rule:evenodd"
viewBox="0 0 373.56 373.56"
 xmlns:xlink="http://www.w3.org/1999/xlink"
 xmlns:xodm="http://www.corel.com/coreldraw/odm/2003">
 <defs>
  <style type="text/css">
   <![CDATA[
    .fil1 {fill:#FEFEFE;fill-rule:nonzero}
    .fil0 {fill:#0092D1;fill-rule:nonzero}
   ]]>
  </style>
 </defs>
 <g id="Capa_x0020_1">
  <metadata id="CorelCorpID_0Corel-Layer"/>
  <g id="_2169856720016">
   <path class="fil0" d="M-0 373.56l0 -224.6 130.75 -55.57 0 37.35 93.39 -37.82 0 56.5 149.42 0 0 224.13 -373.56 0zm28.02 -28.02l317.52 0 0 -168.01 -149.42 0 0 -43.05 -93.39 37.35 0 -36.89 -74.71 33.15 0 177.44zm345.54 -196.11l-84.05 0 18.68 -149.42 46.69 -0 18.68 149.42 0 0zm-345.54 196.11l317.52 0 -317.52 0z"/>
   <polygon class="fil0" points="278.38,312.28 100.21,312.28 100.21,210.84 278.38,210.84 "/>
   <polygon class="fil1" points="282.06,276.28 96.53,276.28 96.53,246.84 282.06,246.84 "/>
  </g>
 </g>
</svg>
