<?xml version="1.0" encoding="UTF-8"?>
<!DOCTYPE svg PUBLIC "-//W3C//DTD SVG 1.1//EN" "http://www.w3.org/Graphics/SVG/1.1/DTD/svg11.dtd">
<!-- Creator: CorelDRAW -->
<svg xmlns="http://www.w3.org/2000/svg" xml:space="preserve" width="25.572mm" height="34.0951mm" version="1.1" style="shape-rendering:geometricPrecision; text-rendering:geometricPrecision; image-rendering:optimizeQuality; fill-rule:evenodd; clip-rule:evenodd"
viewBox="0 0 748.69 998.23"
 xmlns:xlink="http://www.w3.org/1999/xlink"
 xmlns:xodm="http://www.corel.com/coreldraw/odm/2003">
 <defs>
  <style type="text/css">
   <![CDATA[
    .fil0 {fill:#0092D1;fill-rule:nonzero}
   ]]>
  </style>
 </defs>
 <g id="Capa_x0020_1">
  <metadata id="CorelCorpID_0Corel-Layer"/>
  <path class="fil0" d="M374.34 998.23c-27.45,0 -50.95,-9.77 -70.5,-29.32 -19.56,-19.54 -29.33,-43.05 -29.33,-70.49l199.66 0c0,27.45 -9.77,50.95 -29.34,70.49 -19.54,19.54 -43.05,29.32 -70.49,29.32zm-199.64 -149.73l0 -99.83 399.28 0 0 99.83 -399.28 0zm12.47 -149.75c-57.4,-34.11 -102.94,-79.85 -136.64,-137.26 -33.69,-57.38 -50.54,-119.79 -50.54,-187.17 0,-103.98 36.41,-192.36 109.19,-265.16 72.8,-72.78 161.18,-109.17 265.16,-109.17 103.98,0 192.36,36.39 265.16,109.17 72.78,72.8 109.19,161.18 109.19,265.16 0,67.39 -16.85,129.79 -50.54,187.17 -33.69,57.4 -79.23,103.15 -136.63,137.26l-374.34 0zm29.96 -99.81l314.43 0c37.45,-26.62 66.35,-59.48 86.74,-98.58 20.37,-39.09 30.56,-81.1 30.56,-126.03 0,-76.53 -26.62,-141.41 -79.85,-194.64 -53.24,-53.25 -118.13,-79.87 -194.66,-79.87 -76.53,0 -141.43,26.62 -194.66,79.87 -53.24,53.24 -79.85,118.11 -79.85,194.64 0,44.94 10.19,86.95 30.56,126.03 20.39,39.11 49.29,71.97 86.74,98.58zm157.22 0z"/>
 </g>
</svg>
