<?xml version="1.0" encoding="UTF-8"?>
<!DOCTYPE svg PUBLIC "-//W3C//DTD SVG 1.1//EN" "http://www.w3.org/Graphics/SVG/1.1/DTD/svg11.dtd">
<!-- Creator: CorelDRAW -->
<svg xmlns="http://www.w3.org/2000/svg" xml:space="preserve" width="12.5313mm" height="12.5314mm" version="1.1" style="shape-rendering:geometricPrecision; text-rendering:geometricPrecision; image-rendering:optimizeQuality; fill-rule:evenodd; clip-rule:evenodd"
viewBox="0 0 316.94 316.94"
 xmlns:xlink="http://www.w3.org/1999/xlink"
 xmlns:xodm="http://www.corel.com/coreldraw/odm/2003">
 <defs>
  <style type="text/css">
   <![CDATA[
    .str0 {stroke:#0092D1;stroke-width:5.06;stroke-miterlimit:22.9256}
    .fil0 {fill:#FEFEFE}
    .fil1 {fill:#FEFEFE;fill-rule:nonzero}
    .fil3 {fill:#0092D1;fill-rule:nonzero}
    .fil2 {fill:#0092D1;fill-rule:nonzero;fill-opacity:0.121569}
   ]]>
  </style>
 </defs>
 <g id="Capa_x0020_1">
  <metadata id="CorelCorpID_0Corel-Layer"/>
  <g id="_2227990699808">
   <g>
    <path class="fil0 str0" d="M2.53 158.47c0,-86.12 69.82,-155.94 155.94,-155.94 86.12,0 155.94,69.82 155.94,155.94 0,86.12 -69.82,155.94 -155.94,155.94 -86.13,0 -155.94,-69.82 -155.94,-155.94z"/>
   </g>
   <g>
    <g>
     <polygon class="fil1" points="135.71,187.09 195.37,156.23 135.71,125.11 135.71,187.09 "/>
     <polygon class="fil2" points="135.71,125.11 188.04,160.02 195.37,156.23 135.71,125.11 "/>
     <path class="fil3" d="M266.49 114.33c0,0 -2.15,-15.17 -8.79,-21.9 -8.36,-8.79 -17.75,-8.79 -22.15,-9.31 -30.77,-2.24 -77.04,-2.24 -77.04,-2.24l-0.09 0c0,0 -46.28,0 -77.22,2.24 -4.31,0.52 -13.7,0.52 -22.15,9.31 -6.55,6.72 -8.7,21.9 -8.7,21.9 0,0 -2.24,17.93 -2.24,35.78l0 16.72c0,17.85 2.24,35.69 2.24,35.69 0,0 2.15,15.17 8.79,21.9 8.36,8.79 19.39,8.54 24.3,9.4 17.67,1.72 74.97,2.24 74.97,2.24 0,0 46.36,-0.09 77.22,-2.33 4.31,-0.52 13.7,-0.52 22.15,-9.31 6.63,-6.72 8.79,-21.9 8.79,-21.9 0,0 2.24,-17.85 2.24,-35.69l0 -16.72c-0.09,-17.85 -2.33,-35.78 -2.33,-35.78l0 0zm-130.82 72.76l0 -61.99 59.63 31.12 -59.63 30.86 0 0z"/>
    </g>
   </g>
  </g>
 </g>
</svg>
